<?xml version="1.0" encoding="utf-8"?>
<!-- Generator: Adobe Illustrator 16.0.0, SVG Export Plug-In . SVG Version: 6.00 Build 0)  -->
<!DOCTYPE svg PUBLIC "-//W3C//DTD SVG 1.1//EN" "http://www.w3.org/Graphics/SVG/1.1/DTD/svg11.dtd">
<svg version="1.1" id="Layer_1" xmlns="http://www.w3.org/2000/svg" xmlns:xlink="http://www.w3.org/1999/xlink" x="0px" y="0px"
	 width="64px" height="64px" viewBox="0 0 64 64" enable-background="new 0 0 64 64" xml:space="preserve">
<polygon fill-rule="evenodd" clip-rule="evenodd" fill="#6D6D6D" points="1.45,47.945 32.047,23.24 48.721,48.091 62.723,48.082 
	32.041,2.008 "/>
<path fill-rule="evenodd" clip-rule="evenodd" fill="#B62225" d="M32.047,23.24c-10.195,8.264-20.368,16.511-30.54,24.758
	c-0.019-0.019-0.038-0.035-0.057-0.053c10.187-15.297,20.373-30.593,30.59-45.938c10.241,15.376,20.448,30.707,30.682,46.074
	c-0.113,0.009-0.184,0.019-0.257,0.019c-4.535,0.002-9.071,0-13.607,0.009c-0.224,0-0.318-0.115-0.423-0.27
	c-1.901-2.857-3.806-5.71-5.705-8.567c-3.026-4.545-6.05-9.088-9.071-13.632c-0.476-0.71-0.946-1.421-1.417-2.132
	C32.185,23.424,32.124,23.345,32.047,23.24z"/>
<path fill-rule="evenodd" clip-rule="evenodd" fill="#B62225" d="M31.411,27.627c4.549,6.828,9.078,13.624,13.637,20.463
	c-12.981,0-25.891,0-38.887,0C14.603,41.249,22.988,34.455,31.411,27.627z"/>
<g>
	<path fill="#FFFFFF" d="M10.6,56.053v0.187H7.017v-0.187h0.228c0.199,0,0.359-0.036,0.48-0.106
		c0.088-0.047,0.155-0.128,0.202-0.243c0.037-0.08,0.056-0.293,0.056-0.636V50.56c0-0.351-0.019-0.569-0.056-0.657
		s-0.112-0.164-0.225-0.229c-0.113-0.066-0.266-0.099-0.458-0.099H7.017v-0.188H10.6v0.188h-0.228c-0.199,0-0.359,0.035-0.48,0.105
		c-0.088,0.048-0.157,0.129-0.207,0.243c-0.037,0.081-0.056,0.293-0.056,0.637v4.508c0,0.35,0.019,0.569,0.058,0.656
		c0.039,0.088,0.114,0.164,0.228,0.23c0.113,0.065,0.265,0.099,0.457,0.099H10.6z"/>
	<path fill="#FFFFFF" d="M15.957,49.23l0.056,2.284h-0.208c-0.098-0.573-0.337-1.033-0.72-1.382
		c-0.383-0.349-0.796-0.523-1.241-0.523c-0.344,0-0.616,0.092-0.816,0.275c-0.201,0.184-0.301,0.396-0.301,0.634
		c0,0.152,0.035,0.287,0.106,0.404c0.098,0.159,0.254,0.315,0.47,0.471c0.158,0.11,0.523,0.308,1.096,0.591
		c0.802,0.395,1.343,0.767,1.622,1.117c0.276,0.35,0.415,0.751,0.415,1.202c0,0.573-0.223,1.065-0.669,1.479
		c-0.447,0.412-1.013,0.619-1.701,0.619c-0.215,0-0.419-0.022-0.611-0.066s-0.433-0.126-0.723-0.247
		c-0.162-0.067-0.295-0.102-0.399-0.102c-0.088,0-0.181,0.034-0.278,0.102s-0.177,0.17-0.237,0.308h-0.187v-2.587h0.187
		c0.148,0.728,0.434,1.283,0.856,1.665c0.423,0.383,0.878,0.573,1.367,0.573c0.377,0,0.678-0.103,0.902-0.308
		c0.224-0.206,0.336-0.445,0.336-0.718c0-0.162-0.043-0.318-0.129-0.47c-0.086-0.152-0.216-0.296-0.392-0.433
		c-0.175-0.136-0.485-0.313-0.93-0.533c-0.624-0.307-1.071-0.567-1.344-0.783c-0.273-0.215-0.482-0.456-0.629-0.723
		c-0.147-0.266-0.22-0.559-0.22-0.879c0-0.546,0.201-1.011,0.602-1.395s0.906-0.576,1.516-0.576c0.222,0,0.438,0.027,0.646,0.081
		c0.159,0.04,0.352,0.115,0.579,0.225c0.228,0.109,0.387,0.164,0.478,0.164c0.088,0,0.157-0.026,0.208-0.081
		c0.05-0.054,0.098-0.184,0.141-0.389H15.957z"/>
	<path fill="#FFFFFF" d="M19.93,49.781v2.789h0.136c0.435,0,0.75-0.136,0.945-0.409c0.196-0.272,0.32-0.675,0.374-1.208h0.192v3.588
		h-0.192c-0.04-0.391-0.125-0.71-0.255-0.96c-0.13-0.249-0.281-0.417-0.453-0.503c-0.171-0.086-0.421-0.129-0.748-0.129v1.931
		c0,0.377,0.016,0.608,0.048,0.692s0.092,0.153,0.179,0.207c0.088,0.054,0.229,0.081,0.425,0.081h0.409
		c0.64,0,1.153-0.148,1.539-0.444c0.386-0.297,0.663-0.748,0.832-1.354h0.187l-0.309,2.178h-5.922v-0.187h0.228
		c0.199,0,0.359-0.036,0.48-0.106c0.088-0.047,0.155-0.128,0.202-0.243c0.037-0.08,0.056-0.293,0.056-0.636V50.56
		c0-0.311-0.008-0.5-0.025-0.571c-0.034-0.118-0.096-0.209-0.187-0.272c-0.128-0.095-0.303-0.142-0.525-0.142h-0.228v-0.188h5.736
		v2.026h-0.192c-0.098-0.495-0.235-0.851-0.412-1.066c-0.177-0.215-0.427-0.373-0.75-0.475c-0.189-0.061-0.542-0.091-1.061-0.091
		H19.93z"/>
	<path fill="#FFFFFF" d="M31.179,49.23v2.375h-0.197c-0.148-0.62-0.425-1.095-0.829-1.425s-0.862-0.495-1.375-0.495
		c-0.428,0-0.82,0.123-1.177,0.368c-0.357,0.246-0.618,0.568-0.783,0.966c-0.212,0.509-0.318,1.074-0.318,1.697
		c0,0.613,0.078,1.172,0.232,1.676c0.155,0.503,0.397,0.884,0.728,1.142s0.758,0.387,1.284,0.387c0.431,0,0.826-0.095,1.185-0.283
		s0.737-0.514,1.134-0.975v0.591c-0.384,0.401-0.784,0.691-1.2,0.872c-0.416,0.18-0.902,0.27-1.458,0.27
		c-0.731,0-1.381-0.146-1.948-0.439c-0.568-0.293-1.005-0.714-1.314-1.263c-0.308-0.55-0.462-1.134-0.462-1.754
		c0-0.653,0.171-1.273,0.513-1.859c0.342-0.586,0.803-1.041,1.384-1.364s1.199-0.485,1.852-0.485c0.482,0,0.991,0.104,1.526,0.313
		c0.31,0.121,0.507,0.182,0.591,0.182c0.107,0,0.201-0.039,0.28-0.119c0.079-0.079,0.13-0.204,0.154-0.376H31.179z"/>
	<path fill="#FFFFFF" d="M41.384,53.834l-0.258,2.405h-6.084v-0.187h0.227c0.199,0,0.359-0.036,0.48-0.106
		c0.088-0.047,0.155-0.128,0.202-0.243c0.037-0.08,0.056-0.293,0.056-0.636V50.56c0-0.351-0.019-0.569-0.056-0.657
		s-0.112-0.164-0.225-0.229c-0.113-0.066-0.266-0.099-0.458-0.099h-0.227v-0.188h3.653v0.188h-0.298
		c-0.199,0-0.359,0.035-0.48,0.105c-0.088,0.048-0.156,0.129-0.207,0.243c-0.037,0.081-0.056,0.293-0.056,0.637v4.366
		c0,0.35,0.021,0.573,0.061,0.669c0.04,0.097,0.119,0.168,0.237,0.215c0.084,0.03,0.288,0.046,0.611,0.046h0.571
		c0.364,0,0.667-0.064,0.909-0.192c0.243-0.128,0.453-0.33,0.63-0.606s0.344-0.684,0.503-1.223H41.384z"/>
	<path fill="#FFFFFF" d="M47.591,49.387v1.854h-0.183c-0.107-0.428-0.228-0.735-0.358-0.922c-0.132-0.187-0.312-0.336-0.541-0.447
		c-0.128-0.061-0.352-0.091-0.672-0.091h-0.511v5.286c0,0.35,0.02,0.569,0.059,0.656c0.038,0.088,0.114,0.164,0.228,0.23
		c0.112,0.065,0.267,0.099,0.462,0.099h0.228v0.187h-3.588v-0.187h0.228c0.198,0,0.358-0.036,0.48-0.106
		c0.087-0.047,0.156-0.128,0.207-0.243c0.037-0.08,0.056-0.293,0.056-0.636v-5.286h-0.496c-0.461,0-0.796,0.098-1.005,0.293
		c-0.293,0.272-0.479,0.662-0.556,1.167h-0.192v-1.854H47.591z"/>
	<path fill="#FFFFFF" d="M48.359,56.239v-0.187h0.228c0.198,0,0.351-0.031,0.457-0.094s0.185-0.147,0.234-0.256
		c0.031-0.07,0.046-0.282,0.046-0.636V50.56c0-0.351-0.019-0.569-0.056-0.657s-0.112-0.164-0.225-0.229
		c-0.113-0.066-0.266-0.099-0.457-0.099h-0.228v-0.188h3.067c0.818,0,1.477,0.111,1.976,0.334c0.609,0.272,1.072,0.686,1.387,1.238
		c0.315,0.552,0.473,1.177,0.473,1.874c0,0.482-0.077,0.926-0.232,1.332s-0.355,0.741-0.602,1.006
		c-0.246,0.264-0.529,0.477-0.852,0.637c-0.321,0.159-0.715,0.283-1.18,0.371c-0.205,0.04-0.528,0.061-0.97,0.061H48.359z
		 M50.972,49.776v5.346c0,0.283,0.014,0.457,0.04,0.521c0.027,0.064,0.072,0.113,0.137,0.146c0.091,0.051,0.223,0.076,0.395,0.076
		c0.563,0,0.992-0.192,1.288-0.576c0.404-0.519,0.606-1.324,0.606-2.415c0-0.88-0.138-1.582-0.414-2.107
		c-0.219-0.411-0.5-0.69-0.844-0.839C51.937,49.823,51.534,49.772,50.972,49.776z"/>
</g>
<g>
	<path fill="#FFFFFF" d="M6.178,57.981L5.979,58.79H5.921c-0.013-0.126-0.036-0.228-0.069-0.304
		c-0.049-0.11-0.114-0.195-0.196-0.255s-0.17-0.09-0.265-0.09c-0.091,0-0.171,0.035-0.24,0.104c-0.069,0.07-0.103,0.148-0.103,0.236
		c0,0.087,0.024,0.172,0.071,0.256s0.16,0.21,0.336,0.379c0.142,0.135,0.237,0.251,0.286,0.349c0.049,0.097,0.073,0.202,0.073,0.316
		c0,0.127-0.034,0.245-0.102,0.353c-0.068,0.108-0.167,0.191-0.296,0.251c-0.129,0.059-0.276,0.089-0.44,0.089
		c-0.101,0-0.228-0.015-0.38-0.045s-0.255-0.045-0.305-0.045c-0.04,0-0.076,0.006-0.107,0.019c-0.032,0.012-0.071,0.036-0.118,0.071
		H3.998l0.213-0.909h0.066c0.016,0.159,0.048,0.295,0.097,0.407c0.049,0.111,0.12,0.199,0.211,0.262
		c0.092,0.063,0.196,0.094,0.313,0.094c0.116,0,0.213-0.038,0.291-0.115c0.078-0.076,0.117-0.166,0.117-0.27
		c0-0.088-0.022-0.172-0.066-0.253s-0.145-0.198-0.301-0.354c-0.156-0.154-0.265-0.293-0.324-0.415
		c-0.043-0.09-0.065-0.187-0.065-0.288c0-0.177,0.07-0.33,0.209-0.459s0.322-0.193,0.547-0.193c0.102,0,0.236,0.023,0.402,0.068
		c0.097,0.027,0.166,0.041,0.206,0.041c0.034,0,0.064-0.008,0.092-0.022c0.027-0.015,0.059-0.043,0.095-0.087H6.178z"/>
	<path fill="#FFFFFF" d="M7.036,58.79l-0.341,1.195C6.678,60.041,6.67,60.079,6.67,60.1c0,0.011,0.004,0.02,0.012,0.025
		c0.009,0.009,0.021,0.014,0.033,0.014c0.054,0,0.126-0.048,0.216-0.145c0.129-0.139,0.264-0.34,0.406-0.601l0.16-0.538l0.445-0.016
		L7.605,60c-0.028,0.099-0.042,0.154-0.042,0.169c0,0.009,0.004,0.019,0.013,0.028s0.018,0.016,0.027,0.016
		c0.017,0,0.032-0.008,0.048-0.021c0.042-0.034,0.098-0.103,0.167-0.206l0.06,0.043c-0.163,0.294-0.342,0.44-0.538,0.44
		c-0.072,0-0.129-0.018-0.171-0.055c-0.042-0.037-0.062-0.086-0.062-0.146c0-0.063,0.015-0.144,0.044-0.24l0.086-0.298
		c-0.152,0.222-0.263,0.371-0.332,0.448c-0.105,0.116-0.194,0.193-0.267,0.232s-0.141,0.058-0.207,0.058
		c-0.062,0-0.116-0.022-0.161-0.068c-0.045-0.046-0.068-0.104-0.068-0.174c0-0.06,0.015-0.14,0.044-0.241l0.199-0.703
		c0.033-0.114,0.049-0.192,0.049-0.231c0-0.018-0.005-0.033-0.014-0.047s-0.025-0.024-0.047-0.031
		c-0.021-0.008-0.062-0.012-0.12-0.012l0.018-0.067l0.6-0.104H7.036z"/>
	<path fill="#FFFFFF" d="M8.935,58.79l-0.265,0.988c0.218-0.481,0.382-0.778,0.492-0.89c0.064-0.065,0.132-0.099,0.204-0.099
		c0.049,0,0.089,0.019,0.12,0.054c0.03,0.036,0.046,0.087,0.046,0.152c0,0.113-0.028,0.209-0.083,0.286
		c-0.035,0.05-0.074,0.074-0.118,0.074c-0.047,0-0.082-0.021-0.105-0.065c-0.023-0.043-0.04-0.068-0.049-0.076
		c-0.009-0.008-0.019-0.012-0.03-0.012c-0.012,0-0.024,0.004-0.037,0.011c-0.026,0.014-0.06,0.049-0.101,0.103
		c-0.042,0.055-0.093,0.146-0.154,0.273c-0.061,0.128-0.108,0.236-0.143,0.324c-0.034,0.089-0.082,0.258-0.143,0.506H8.144
		l0.29-1.166c0.021-0.086,0.032-0.144,0.032-0.172c0-0.031-0.006-0.057-0.017-0.074c-0.011-0.018-0.026-0.03-0.046-0.038
		c-0.02-0.009-0.06-0.013-0.121-0.013l0.016-0.051l0.531-0.116H8.935z"/>
	<path fill="#FFFFFF" d="M9.979,60.469H9.916c0.003-0.096,0.005-0.168,0.005-0.218c0-0.134-0.01-0.326-0.031-0.579
		s-0.043-0.421-0.069-0.506c-0.02-0.062-0.046-0.106-0.079-0.135c-0.022-0.019-0.051-0.028-0.086-0.028
		c-0.02,0-0.044,0.002-0.072,0.007v-0.063l0.585-0.156c0.117,0.32,0.174,0.729,0.17,1.229c0.172-0.164,0.291-0.298,0.356-0.399
		c0.065-0.102,0.098-0.187,0.098-0.255c0-0.054-0.02-0.108-0.061-0.164s-0.065-0.096-0.076-0.119
		c-0.01-0.023-0.015-0.049-0.015-0.077c0-0.062,0.02-0.112,0.06-0.153s0.09-0.062,0.151-0.062c0.064,0,0.114,0.021,0.149,0.062
		c0.049,0.058,0.074,0.126,0.074,0.204c0,0.081-0.015,0.16-0.043,0.238c-0.029,0.078-0.078,0.17-0.148,0.276
		c-0.07,0.105-0.147,0.202-0.233,0.289C10.495,60.019,10.271,60.222,9.979,60.469z"/>
	<path fill="#FFFFFF" d="M11.644,59.761c-0.01,0.076-0.016,0.139-0.016,0.188c0,0.088,0.025,0.158,0.076,0.211
		c0.051,0.053,0.12,0.079,0.205,0.079c0.082,0,0.164-0.021,0.247-0.061c0.083-0.039,0.178-0.109,0.287-0.209l0.053,0.048
		c-0.135,0.163-0.266,0.278-0.394,0.348c-0.128,0.069-0.269,0.104-0.424,0.104c-0.196,0-0.331-0.047-0.406-0.141
		c-0.075-0.094-0.112-0.202-0.112-0.325c0-0.191,0.056-0.384,0.168-0.576s0.264-0.347,0.457-0.463
		c0.193-0.115,0.386-0.174,0.581-0.174c0.098,0,0.173,0.023,0.223,0.07s0.076,0.106,0.076,0.178c0,0.086-0.025,0.169-0.074,0.25
		c-0.068,0.11-0.154,0.198-0.257,0.266s-0.219,0.119-0.346,0.154C11.903,59.731,11.788,59.749,11.644,59.761z M11.66,59.669
		c0.103-0.015,0.183-0.036,0.24-0.063s0.112-0.068,0.167-0.126c0.055-0.059,0.102-0.132,0.142-0.22
		c0.04-0.089,0.06-0.172,0.06-0.249c0-0.033-0.009-0.059-0.027-0.077c-0.018-0.019-0.041-0.028-0.069-0.028
		c-0.056,0-0.12,0.039-0.19,0.118C11.852,59.167,11.745,59.382,11.66,59.669z"/>
	<path fill="#FFFFFF" d="M12.77,58.948l0.542-0.158c0.043,0.054,0.074,0.105,0.091,0.153c0.032,0.083,0.054,0.198,0.067,0.345
		c0.025,0.288,0.042,0.596,0.051,0.923c0.125-0.165,0.269-0.384,0.431-0.656c0.049-0.082,0.074-0.159,0.074-0.231
		c0-0.046-0.028-0.089-0.085-0.131c-0.057-0.041-0.092-0.072-0.106-0.096c-0.014-0.022-0.021-0.052-0.021-0.089
		c0-0.059,0.021-0.109,0.064-0.152c0.042-0.044,0.094-0.065,0.155-0.065c0.064,0,0.121,0.024,0.168,0.074
		c0.047,0.049,0.071,0.107,0.071,0.174c0,0.078-0.022,0.17-0.066,0.273s-0.147,0.281-0.309,0.533
		c-0.208,0.322-0.411,0.602-0.61,0.837c-0.128,0.15-0.231,0.259-0.31,0.324c-0.079,0.066-0.16,0.119-0.244,0.157
		c-0.051,0.022-0.101,0.034-0.149,0.034c-0.067,0-0.124-0.023-0.171-0.07c-0.048-0.047-0.071-0.103-0.071-0.167
		s0.021-0.119,0.064-0.164c0.043-0.044,0.093-0.066,0.15-0.066c0.071,0,0.137,0.037,0.197,0.112c0.04,0.051,0.073,0.075,0.099,0.075
		c0.027,0,0.053-0.007,0.079-0.022c0.035-0.019,0.084-0.063,0.147-0.13c0.007-0.146,0.011-0.258,0.011-0.332
		c0-0.102-0.005-0.243-0.014-0.426l-0.03-0.67c-0.011-0.123-0.037-0.212-0.079-0.266c-0.033-0.04-0.076-0.06-0.128-0.06
		c-0.02,0-0.042,0.002-0.067,0.005V58.948z"/>
	<path fill="#FFFFFF" d="M16.901,58.814l-0.341,1.17l-0.035,0.142c-0.003,0.018-0.005,0.031-0.005,0.039
		c0,0.014,0.005,0.026,0.015,0.037c0.01,0.011,0.021,0.016,0.031,0.016c0.025,0,0.059-0.019,0.102-0.057
		c0.018-0.015,0.06-0.068,0.126-0.161l0.062,0.031c-0.083,0.152-0.172,0.264-0.266,0.333c-0.094,0.07-0.196,0.104-0.305,0.104
		c-0.067,0-0.118-0.017-0.153-0.052c-0.035-0.034-0.053-0.078-0.053-0.131c0-0.046,0.019-0.131,0.056-0.255l0.042-0.143
		c-0.136,0.233-0.267,0.398-0.392,0.496c-0.073,0.057-0.15,0.084-0.232,0.084c-0.107,0-0.186-0.044-0.233-0.133
		c-0.048-0.088-0.072-0.188-0.072-0.299c0-0.166,0.05-0.355,0.151-0.569c0.101-0.214,0.233-0.386,0.397-0.516
		c0.135-0.108,0.262-0.162,0.38-0.162c0.065,0,0.118,0.02,0.158,0.058s0.069,0.107,0.088,0.208l0.063-0.216L16.901,58.814z
		 M16.339,59.148c0-0.095-0.015-0.163-0.044-0.205c-0.021-0.029-0.05-0.044-0.086-0.044c-0.036,0-0.074,0.018-0.112,0.053
		c-0.079,0.072-0.163,0.22-0.254,0.442c-0.091,0.222-0.136,0.414-0.136,0.575c0,0.063,0.01,0.107,0.031,0.135
		s0.043,0.041,0.067,0.041c0.053,0,0.106-0.03,0.16-0.091c0.077-0.087,0.147-0.193,0.209-0.318
		C16.284,59.516,16.339,59.32,16.339,59.148z"/>
	<path fill="#FFFFFF" d="M17.938,58.79l-0.218,0.755c0.146-0.221,0.256-0.371,0.329-0.452c0.107-0.117,0.199-0.197,0.276-0.239
		c0.078-0.042,0.15-0.063,0.218-0.063c0.061,0,0.113,0.022,0.156,0.068c0.043,0.045,0.065,0.104,0.065,0.176
		c0,0.066-0.014,0.146-0.042,0.239l-0.225,0.751c-0.019,0.065-0.028,0.108-0.028,0.128c0,0.012,0.004,0.022,0.013,0.032
		c0.009,0.009,0.018,0.014,0.027,0.014c0.012,0,0.024-0.005,0.037-0.014c0.041-0.034,0.083-0.082,0.125-0.145
		c0.01-0.017,0.027-0.041,0.051-0.073l0.067,0.04c-0.172,0.289-0.354,0.435-0.543,0.435c-0.072,0-0.129-0.02-0.17-0.057
		s-0.062-0.084-0.062-0.141c0-0.049,0.014-0.122,0.042-0.22l0.22-0.751c0.015-0.049,0.022-0.085,0.022-0.108
		c0-0.014-0.005-0.024-0.016-0.034c-0.011-0.011-0.023-0.016-0.037-0.016c-0.044,0-0.098,0.03-0.162,0.092
		c-0.162,0.154-0.318,0.385-0.469,0.69l-0.144,0.522h-0.448l0.329-1.129c0.032-0.111,0.047-0.19,0.047-0.237
		c0-0.02-0.005-0.036-0.014-0.05s-0.024-0.024-0.045-0.031c-0.021-0.008-0.061-0.012-0.12-0.012l0.019-0.067l0.593-0.104H17.938z"/>
	<path fill="#FFFFFF" d="M20.943,57.981l-0.572,1.968c-0.036,0.123-0.054,0.197-0.054,0.223c0,0.013,0.004,0.024,0.014,0.033
		c0.009,0.01,0.019,0.015,0.03,0.015c0.02,0,0.042-0.01,0.068-0.03c0.043-0.032,0.096-0.095,0.158-0.187l0.063,0.034
		c-0.166,0.288-0.347,0.432-0.545,0.432c-0.07,0-0.125-0.018-0.163-0.055s-0.057-0.084-0.057-0.142c0-0.056,0.015-0.134,0.045-0.235
		l0.053-0.18c-0.146,0.259-0.273,0.432-0.381,0.517c-0.082,0.063-0.162,0.095-0.239,0.095c-0.088,0-0.162-0.035-0.222-0.106
		c-0.061-0.072-0.09-0.176-0.09-0.313c0-0.175,0.039-0.347,0.116-0.517c0.078-0.17,0.167-0.312,0.268-0.426
		c0.102-0.113,0.198-0.194,0.29-0.243c0.092-0.049,0.183-0.073,0.272-0.073c0.045,0,0.086,0.01,0.122,0.028s0.076,0.054,0.122,0.105
		l0.13-0.438c0.032-0.108,0.048-0.186,0.048-0.232c0-0.028-0.011-0.052-0.032-0.072c-0.021-0.02-0.049-0.029-0.084-0.029
		c-0.017,0-0.037,0.002-0.062,0.005l0.018-0.068l0.579-0.107H20.943z M20.169,59.096c0-0.071-0.014-0.123-0.042-0.156
		c-0.028-0.032-0.061-0.049-0.099-0.049c-0.037,0-0.078,0.02-0.121,0.058c-0.083,0.075-0.17,0.227-0.261,0.453
		s-0.136,0.417-0.136,0.572c0,0.056,0.01,0.098,0.03,0.125c0.02,0.026,0.042,0.04,0.066,0.04c0.041,0,0.082-0.019,0.123-0.057
		c0.1-0.089,0.198-0.242,0.294-0.459C20.121,59.405,20.169,59.229,20.169,59.096z"/>
	<path fill="#FFFFFF" d="M24.274,57.981l-0.176,0.758H24.03c-0.008-0.206-0.059-0.36-0.152-0.462
		c-0.093-0.101-0.215-0.151-0.365-0.151c-0.162,0-0.323,0.069-0.483,0.207c-0.161,0.139-0.296,0.35-0.408,0.635
		c-0.09,0.231-0.135,0.459-0.135,0.684c0,0.202,0.049,0.355,0.148,0.462c0.099,0.105,0.234,0.159,0.407,0.159
		c0.14,0,0.267-0.03,0.382-0.092c0.115-0.061,0.23-0.16,0.348-0.297h0.084c-0.145,0.218-0.292,0.371-0.44,0.459
		c-0.148,0.088-0.33,0.132-0.544,0.132c-0.287,0-0.519-0.087-0.693-0.262c-0.175-0.174-0.263-0.4-0.263-0.681
		c0-0.263,0.07-0.513,0.209-0.752c0.139-0.238,0.34-0.431,0.602-0.578s0.522-0.221,0.781-0.221c0.099,0,0.221,0.021,0.368,0.063
		c0.075,0.021,0.127,0.031,0.156,0.031c0.059,0,0.118-0.031,0.178-0.095H24.274z"/>
	<path fill="#FFFFFF" d="M25.264,58.79c0.093,0,0.18,0.021,0.261,0.064c0.081,0.043,0.143,0.103,0.185,0.179
		c0.042,0.076,0.063,0.16,0.063,0.253c0,0.189-0.053,0.38-0.159,0.569c-0.106,0.19-0.246,0.34-0.419,0.449s-0.348,0.164-0.524,0.164
		c-0.159,0-0.283-0.047-0.37-0.142c-0.087-0.096-0.131-0.211-0.131-0.349c0-0.163,0.033-0.315,0.098-0.458s0.147-0.267,0.248-0.372
		c0.101-0.106,0.216-0.192,0.346-0.259S25.125,58.79,25.264,58.79z M25.192,58.884c-0.062,0-0.113,0.018-0.154,0.054
		c-0.082,0.074-0.175,0.247-0.278,0.519c-0.104,0.271-0.155,0.516-0.155,0.733c0,0.054,0.016,0.099,0.049,0.134
		c0.033,0.035,0.071,0.053,0.116,0.053c0.046,0,0.086-0.014,0.122-0.042c0.051-0.042,0.115-0.137,0.19-0.284
		c0.075-0.147,0.136-0.31,0.185-0.487c0.048-0.177,0.072-0.34,0.072-0.487c0-0.062-0.015-0.108-0.044-0.142
		S25.231,58.884,25.192,58.884z"/>
	<path fill="#FFFFFF" d="M26.843,58.79l-0.218,0.755c0.146-0.221,0.256-0.371,0.329-0.452c0.107-0.117,0.199-0.197,0.276-0.239
		c0.078-0.042,0.15-0.063,0.218-0.063c0.061,0,0.113,0.022,0.156,0.068c0.043,0.045,0.065,0.104,0.065,0.176
		c0,0.066-0.014,0.146-0.042,0.239l-0.225,0.751c-0.019,0.065-0.028,0.108-0.028,0.128c0,0.012,0.004,0.022,0.013,0.032
		c0.009,0.009,0.018,0.014,0.027,0.014c0.012,0,0.024-0.005,0.037-0.014c0.041-0.034,0.083-0.082,0.125-0.145
		c0.01-0.017,0.027-0.041,0.051-0.073l0.067,0.04c-0.172,0.289-0.354,0.435-0.543,0.435c-0.072,0-0.129-0.02-0.17-0.057
		s-0.062-0.084-0.062-0.141c0-0.049,0.014-0.122,0.042-0.22l0.22-0.751c0.015-0.049,0.022-0.085,0.022-0.108
		c0-0.014-0.005-0.024-0.016-0.034c-0.011-0.011-0.023-0.016-0.037-0.016c-0.044,0-0.098,0.03-0.162,0.092
		c-0.162,0.154-0.318,0.385-0.469,0.69l-0.144,0.522h-0.448l0.329-1.129c0.032-0.111,0.047-0.19,0.047-0.237
		c0-0.02-0.005-0.036-0.014-0.05s-0.024-0.024-0.045-0.031c-0.021-0.008-0.061-0.012-0.12-0.012l0.019-0.067l0.593-0.104H26.843z"/>
	<path fill="#FFFFFF" d="M29.223,58.79l-0.077,0.543h-0.065c-0.009-0.141-0.053-0.251-0.129-0.332s-0.159-0.121-0.247-0.121
		c-0.054,0-0.098,0.016-0.133,0.048c-0.035,0.031-0.053,0.069-0.053,0.114c0,0.037,0.007,0.072,0.023,0.105
		c0.015,0.032,0.049,0.077,0.102,0.133c0.186,0.2,0.298,0.337,0.338,0.412c0.04,0.075,0.06,0.155,0.06,0.24
		c0,0.093-0.023,0.181-0.07,0.263c-0.047,0.083-0.117,0.149-0.21,0.199s-0.19,0.074-0.291,0.074c-0.068,0-0.152-0.013-0.251-0.04
		C28.152,60.41,28.103,60.4,28.07,60.4c-0.029,0-0.052,0.005-0.069,0.014c-0.016,0.009-0.035,0.027-0.054,0.055h-0.065l0.086-0.585
		h0.056c0.041,0.142,0.08,0.243,0.115,0.303c0.036,0.061,0.083,0.108,0.143,0.145c0.06,0.036,0.117,0.054,0.172,0.054
		c0.064,0,0.118-0.021,0.16-0.061c0.042-0.041,0.063-0.089,0.063-0.146c0-0.055-0.014-0.108-0.041-0.159
		c-0.028-0.052-0.091-0.132-0.191-0.241c-0.137-0.148-0.228-0.264-0.271-0.345c-0.031-0.059-0.046-0.125-0.046-0.2
		c0-0.127,0.046-0.232,0.138-0.316c0.092-0.085,0.221-0.127,0.388-0.127c0.072,0,0.162,0.013,0.267,0.039
		c0.053,0.013,0.095,0.02,0.126,0.02c0.046,0,0.083-0.02,0.111-0.059H29.223z"/>
	<path fill="#FFFFFF" d="M30.316,58.361l-0.141,0.479h0.23l-0.062,0.202h-0.227l-0.294,1.02c-0.019,0.063-0.028,0.111-0.028,0.144
		c0,0.016,0.005,0.028,0.016,0.04c0.011,0.011,0.022,0.017,0.035,0.017c0.02,0,0.041-0.008,0.062-0.024
		c0.054-0.041,0.117-0.112,0.188-0.215l0.062,0.039c-0.081,0.141-0.17,0.243-0.267,0.31c-0.097,0.065-0.193,0.098-0.287,0.098
		c-0.08,0-0.142-0.02-0.186-0.061c-0.044-0.04-0.066-0.092-0.066-0.153c0-0.068,0.016-0.155,0.046-0.262l0.278-0.951h-0.239
		l0.035-0.131c0.15-0.055,0.277-0.119,0.38-0.193c0.103-0.073,0.228-0.192,0.373-0.356H30.316z"/>
	<path fill="#FFFFFF" d="M31.137,58.79l-0.265,0.988c0.218-0.481,0.382-0.778,0.492-0.89c0.064-0.065,0.132-0.099,0.204-0.099
		c0.049,0,0.089,0.019,0.12,0.054c0.03,0.036,0.046,0.087,0.046,0.152c0,0.113-0.028,0.209-0.083,0.286
		c-0.035,0.05-0.074,0.074-0.118,0.074c-0.047,0-0.082-0.021-0.105-0.065c-0.023-0.043-0.04-0.068-0.049-0.076
		c-0.009-0.008-0.019-0.012-0.03-0.012c-0.012,0-0.024,0.004-0.037,0.011c-0.026,0.014-0.06,0.049-0.101,0.103
		c-0.042,0.055-0.093,0.146-0.154,0.273c-0.061,0.128-0.108,0.236-0.143,0.324c-0.034,0.089-0.082,0.258-0.143,0.506h-0.425
		l0.29-1.166c0.021-0.086,0.032-0.144,0.032-0.172c0-0.031-0.006-0.057-0.017-0.074c-0.011-0.018-0.026-0.03-0.046-0.038
		c-0.02-0.009-0.06-0.013-0.121-0.013l0.016-0.051l0.531-0.116H31.137z"/>
	<path fill="#FFFFFF" d="M32.643,58.79l-0.341,1.195c-0.017,0.056-0.024,0.094-0.024,0.114c0,0.011,0.004,0.02,0.012,0.025
		c0.009,0.009,0.021,0.014,0.033,0.014c0.054,0,0.126-0.048,0.216-0.145c0.129-0.139,0.264-0.34,0.406-0.601l0.16-0.538l0.444-0.016
		L33.212,60c-0.028,0.099-0.042,0.154-0.042,0.169c0,0.009,0.004,0.019,0.014,0.028c0.008,0.01,0.018,0.016,0.026,0.016
		c0.017,0,0.032-0.008,0.048-0.021c0.042-0.034,0.098-0.103,0.167-0.206l0.06,0.043c-0.163,0.294-0.342,0.44-0.538,0.44
		c-0.072,0-0.129-0.018-0.171-0.055c-0.042-0.037-0.062-0.086-0.062-0.146c0-0.063,0.015-0.144,0.044-0.24l0.086-0.298
		c-0.152,0.222-0.263,0.371-0.332,0.448c-0.105,0.116-0.194,0.193-0.267,0.232s-0.141,0.058-0.207,0.058
		c-0.062,0-0.116-0.022-0.161-0.068c-0.045-0.046-0.068-0.104-0.068-0.174c0-0.06,0.015-0.14,0.044-0.241l0.199-0.703
		c0.033-0.114,0.049-0.192,0.049-0.231c0-0.018-0.005-0.033-0.014-0.047s-0.025-0.024-0.047-0.031
		c-0.021-0.008-0.062-0.012-0.12-0.012l0.018-0.067l0.6-0.104H32.643z"/>
	<path fill="#FFFFFF" d="M35.04,59.996l0.053,0.048c-0.113,0.136-0.226,0.235-0.335,0.299c-0.147,0.084-0.299,0.126-0.456,0.126
		c-0.105,0-0.198-0.022-0.28-0.067c-0.081-0.045-0.142-0.108-0.18-0.189c-0.039-0.082-0.059-0.165-0.059-0.251
		c0-0.192,0.053-0.381,0.156-0.566c0.104-0.187,0.242-0.333,0.413-0.441c0.172-0.108,0.34-0.163,0.505-0.163
		c0.133,0,0.232,0.029,0.299,0.088c0.067,0.059,0.101,0.132,0.101,0.218c0,0.079-0.025,0.146-0.076,0.201
		c-0.05,0.055-0.106,0.082-0.168,0.082c-0.055,0-0.1-0.018-0.135-0.053c-0.036-0.035-0.054-0.076-0.054-0.125
		c0-0.063,0.031-0.118,0.095-0.165c0.044-0.032,0.065-0.062,0.065-0.086c0-0.021-0.009-0.038-0.026-0.051
		c-0.023-0.019-0.054-0.028-0.092-0.028c-0.099,0-0.191,0.04-0.277,0.119c-0.115,0.105-0.203,0.239-0.264,0.401
		c-0.062,0.162-0.092,0.315-0.092,0.461c0,0.114,0.031,0.206,0.093,0.274c0.063,0.068,0.137,0.104,0.222,0.104
		c0.075,0,0.156-0.02,0.244-0.059C34.879,60.134,34.962,60.075,35.04,59.996z"/>
	<path fill="#FFFFFF" d="M36.318,58.361l-0.141,0.479h0.23l-0.062,0.202h-0.228l-0.293,1.02c-0.02,0.063-0.028,0.111-0.028,0.144
		c0,0.016,0.005,0.028,0.016,0.04c0.011,0.011,0.022,0.017,0.035,0.017c0.02,0,0.04-0.008,0.062-0.024
		c0.054-0.041,0.116-0.112,0.188-0.215l0.062,0.039c-0.081,0.141-0.17,0.243-0.268,0.31c-0.098,0.065-0.192,0.098-0.286,0.098
		c-0.08,0-0.142-0.02-0.186-0.061c-0.044-0.04-0.066-0.092-0.066-0.153c0-0.068,0.016-0.155,0.046-0.262l0.277-0.951h-0.238
		l0.035-0.131c0.149-0.055,0.276-0.119,0.379-0.193c0.104-0.073,0.228-0.192,0.373-0.356H36.318z"/>
	<path fill="#FFFFFF" d="M37.204,58.79l-0.36,1.25c-0.021,0.071-0.03,0.118-0.03,0.141c0,0.013,0.005,0.025,0.016,0.036
		c0.011,0.012,0.021,0.017,0.033,0.017c0.021,0,0.04-0.009,0.061-0.026c0.053-0.043,0.115-0.122,0.189-0.235l0.06,0.035
		c-0.177,0.309-0.365,0.462-0.564,0.462c-0.076,0-0.137-0.021-0.182-0.063c-0.045-0.043-0.067-0.098-0.067-0.163
		c0-0.043,0.01-0.099,0.029-0.165l0.245-0.841c0.023-0.08,0.035-0.142,0.035-0.183c0-0.025-0.012-0.049-0.034-0.068
		c-0.021-0.02-0.053-0.03-0.091-0.03c-0.018,0-0.039,0.001-0.063,0.002l0.022-0.07l0.597-0.097H37.204z M37.095,57.981
		c0.072,0,0.134,0.025,0.184,0.076c0.05,0.05,0.075,0.111,0.075,0.183s-0.025,0.132-0.076,0.183
		c-0.05,0.051-0.111,0.075-0.183,0.075c-0.07,0-0.131-0.024-0.181-0.075c-0.051-0.051-0.076-0.111-0.076-0.183
		s0.025-0.133,0.075-0.183C36.963,58.007,37.023,57.981,37.095,57.981z"/>
	<path fill="#FFFFFF" d="M38.471,58.79c0.092,0,0.179,0.021,0.261,0.064c0.081,0.043,0.143,0.103,0.185,0.179
		c0.041,0.076,0.063,0.16,0.063,0.253c0,0.189-0.054,0.38-0.159,0.569c-0.106,0.19-0.246,0.34-0.419,0.449
		c-0.174,0.109-0.349,0.164-0.524,0.164c-0.159,0-0.282-0.047-0.37-0.142c-0.087-0.096-0.131-0.211-0.131-0.349
		c0-0.163,0.032-0.315,0.098-0.458s0.147-0.267,0.248-0.372c0.1-0.106,0.215-0.192,0.345-0.259
		C38.196,58.823,38.331,58.79,38.471,58.79z M38.398,58.884c-0.063,0-0.114,0.018-0.155,0.054c-0.082,0.074-0.175,0.247-0.277,0.519
		c-0.104,0.271-0.155,0.516-0.155,0.733c0,0.054,0.017,0.099,0.05,0.134c0.032,0.035,0.071,0.053,0.116,0.053
		s0.086-0.014,0.121-0.042c0.052-0.042,0.114-0.137,0.189-0.284s0.137-0.31,0.185-0.487c0.049-0.177,0.072-0.34,0.072-0.487
		c0-0.062-0.015-0.108-0.044-0.142S38.437,58.884,38.398,58.884z"/>
	<path fill="#FFFFFF" d="M40.049,58.79l-0.219,0.755c0.146-0.221,0.257-0.371,0.329-0.452c0.106-0.117,0.199-0.197,0.276-0.239
		s0.149-0.063,0.218-0.063c0.061,0,0.113,0.022,0.156,0.068c0.044,0.045,0.065,0.104,0.065,0.176c0,0.066-0.015,0.146-0.042,0.239
		l-0.226,0.751c-0.019,0.065-0.028,0.108-0.028,0.128c0,0.012,0.005,0.022,0.014,0.032c0.009,0.009,0.018,0.014,0.027,0.014
		c0.012,0,0.023-0.005,0.037-0.014c0.041-0.034,0.082-0.082,0.124-0.145c0.011-0.017,0.028-0.041,0.052-0.073l0.066,0.04
		c-0.172,0.289-0.354,0.435-0.543,0.435c-0.073,0-0.13-0.02-0.171-0.057s-0.062-0.084-0.062-0.141c0-0.049,0.014-0.122,0.042-0.22
		l0.22-0.751c0.016-0.049,0.023-0.085,0.023-0.108c0-0.014-0.006-0.024-0.016-0.034c-0.011-0.011-0.023-0.016-0.037-0.016
		c-0.045,0-0.099,0.03-0.162,0.092c-0.162,0.154-0.318,0.385-0.47,0.69l-0.144,0.522h-0.448l0.328-1.129
		c0.032-0.111,0.048-0.19,0.048-0.237c0-0.02-0.005-0.036-0.014-0.05c-0.01-0.014-0.025-0.024-0.046-0.031
		c-0.021-0.008-0.062-0.012-0.12-0.012l0.02-0.067l0.593-0.104H40.049z"/>
	<path fill="#FFFFFF" d="M44.09,57.981l-0.198,0.809h-0.059c-0.013-0.126-0.035-0.228-0.068-0.304
		c-0.049-0.11-0.114-0.195-0.196-0.255c-0.081-0.06-0.169-0.09-0.264-0.09c-0.092,0-0.172,0.035-0.24,0.104
		c-0.068,0.07-0.104,0.148-0.104,0.236c0,0.087,0.024,0.172,0.071,0.256c0.048,0.084,0.16,0.21,0.337,0.379
		c0.142,0.135,0.237,0.251,0.286,0.349c0.048,0.097,0.072,0.202,0.072,0.316c0,0.127-0.033,0.245-0.102,0.353
		c-0.068,0.108-0.167,0.191-0.296,0.251c-0.13,0.059-0.276,0.089-0.44,0.089c-0.102,0-0.228-0.015-0.381-0.045
		s-0.255-0.045-0.305-0.045c-0.04,0-0.076,0.006-0.107,0.019c-0.032,0.012-0.071,0.036-0.118,0.071H41.91l0.213-0.909h0.066
		c0.016,0.159,0.048,0.295,0.097,0.407c0.05,0.111,0.12,0.199,0.211,0.262c0.092,0.063,0.196,0.094,0.313,0.094
		c0.115,0,0.213-0.038,0.291-0.115c0.077-0.076,0.116-0.166,0.116-0.27c0-0.088-0.021-0.172-0.065-0.253s-0.145-0.198-0.301-0.354
		c-0.156-0.154-0.265-0.293-0.324-0.415c-0.044-0.09-0.065-0.187-0.065-0.288c0-0.177,0.07-0.33,0.209-0.459
		c0.14-0.129,0.322-0.193,0.547-0.193c0.103,0,0.236,0.023,0.403,0.068c0.097,0.027,0.165,0.041,0.205,0.041
		c0.034,0,0.064-0.008,0.092-0.022c0.026-0.015,0.059-0.043,0.095-0.087H44.09z"/>
	<path fill="#FFFFFF" d="M44.209,58.889l0.582-0.099h0.105l-0.079,0.287c0.123-0.113,0.224-0.188,0.303-0.228
		c0.078-0.04,0.156-0.06,0.233-0.06c0.11,0,0.195,0.043,0.255,0.128s0.09,0.188,0.09,0.312c0,0.337-0.116,0.635-0.35,0.896
		c-0.207,0.229-0.432,0.344-0.676,0.344c-0.043,0-0.08-0.004-0.11-0.012c-0.03-0.009-0.073-0.026-0.128-0.055l-0.092,0.316
		c-0.033,0.115-0.049,0.202-0.049,0.262c0,0.038,0.013,0.067,0.038,0.089c0.026,0.021,0.086,0.04,0.182,0.056l-0.017,0.064h-0.945
		l0.018-0.064c0.075-0.003,0.138-0.026,0.188-0.072s0.096-0.145,0.14-0.295l0.429-1.479c0.031-0.11,0.048-0.188,0.048-0.234
		c0-0.02-0.005-0.036-0.015-0.05c-0.009-0.014-0.023-0.023-0.042-0.029s-0.061-0.009-0.127-0.009L44.209,58.889z M44.483,60.239
		c0.035,0.057,0.066,0.096,0.095,0.114c0.028,0.02,0.062,0.029,0.099,0.029s0.074-0.01,0.11-0.03
		c0.035-0.021,0.079-0.063,0.132-0.124c0.053-0.063,0.104-0.142,0.152-0.239s0.088-0.208,0.117-0.331
		c0.029-0.124,0.044-0.242,0.044-0.354c0-0.091-0.017-0.156-0.049-0.197s-0.07-0.062-0.116-0.062c-0.041,0-0.08,0.011-0.116,0.032
		c-0.053,0.03-0.115,0.087-0.187,0.17L44.483,60.239z"/>
	<path fill="#FFFFFF" d="M46.354,59.761c-0.011,0.076-0.016,0.139-0.016,0.188c0,0.088,0.025,0.158,0.076,0.211
		s0.119,0.079,0.205,0.079c0.082,0,0.164-0.021,0.247-0.061c0.082-0.039,0.179-0.109,0.287-0.209l0.053,0.048
		c-0.135,0.163-0.266,0.278-0.394,0.348s-0.27,0.104-0.424,0.104c-0.195,0-0.331-0.047-0.406-0.141s-0.112-0.202-0.112-0.325
		c0-0.191,0.056-0.384,0.168-0.576s0.265-0.347,0.457-0.463c0.192-0.115,0.387-0.174,0.581-0.174c0.099,0,0.173,0.023,0.224,0.07
		c0.05,0.047,0.075,0.106,0.075,0.178c0,0.086-0.024,0.169-0.074,0.25c-0.067,0.11-0.153,0.198-0.256,0.266
		c-0.104,0.067-0.219,0.119-0.347,0.154C46.613,59.731,46.499,59.749,46.354,59.761z M46.37,59.669
		c0.104-0.015,0.184-0.036,0.24-0.063s0.112-0.068,0.167-0.126c0.055-0.059,0.102-0.132,0.142-0.22
		c0.04-0.089,0.06-0.172,0.06-0.249c0-0.033-0.009-0.059-0.027-0.077c-0.018-0.019-0.041-0.028-0.069-0.028
		c-0.057,0-0.119,0.039-0.189,0.118C46.563,59.167,46.456,59.382,46.37,59.669z"/>
	<path fill="#FFFFFF" d="M48.741,59.996l0.053,0.048c-0.113,0.136-0.226,0.235-0.335,0.299c-0.147,0.084-0.299,0.126-0.456,0.126
		c-0.105,0-0.198-0.022-0.28-0.067c-0.081-0.045-0.142-0.108-0.18-0.189c-0.039-0.082-0.059-0.165-0.059-0.251
		c0-0.192,0.053-0.381,0.156-0.566c0.104-0.187,0.242-0.333,0.413-0.441c0.172-0.108,0.34-0.163,0.505-0.163
		c0.133,0,0.232,0.029,0.299,0.088c0.067,0.059,0.101,0.132,0.101,0.218c0,0.079-0.025,0.146-0.076,0.201
		c-0.05,0.055-0.106,0.082-0.168,0.082c-0.055,0-0.1-0.018-0.135-0.053c-0.036-0.035-0.054-0.076-0.054-0.125
		c0-0.063,0.031-0.118,0.095-0.165c0.044-0.032,0.065-0.062,0.065-0.086c0-0.021-0.009-0.038-0.026-0.051
		c-0.023-0.019-0.054-0.028-0.092-0.028c-0.099,0-0.191,0.04-0.277,0.119c-0.115,0.105-0.203,0.239-0.264,0.401
		c-0.062,0.162-0.092,0.315-0.092,0.461c0,0.114,0.031,0.206,0.093,0.274c0.063,0.068,0.137,0.104,0.222,0.104
		c0.075,0,0.156-0.02,0.244-0.059C48.58,60.134,48.663,60.075,48.741,59.996z"/>
	<path fill="#FFFFFF" d="M49.906,58.79l-0.36,1.25c-0.021,0.071-0.03,0.118-0.03,0.141c0,0.013,0.005,0.025,0.016,0.036
		c0.011,0.012,0.021,0.017,0.033,0.017c0.021,0,0.04-0.009,0.061-0.026c0.053-0.043,0.115-0.122,0.189-0.235l0.06,0.035
		c-0.177,0.309-0.365,0.462-0.564,0.462c-0.076,0-0.137-0.021-0.182-0.063c-0.045-0.043-0.067-0.098-0.067-0.163
		c0-0.043,0.01-0.099,0.029-0.165l0.245-0.841c0.023-0.08,0.035-0.142,0.035-0.183c0-0.025-0.012-0.049-0.034-0.068
		c-0.021-0.02-0.053-0.03-0.091-0.03c-0.018,0-0.039,0.001-0.063,0.002l0.022-0.07l0.597-0.097H49.906z M49.797,57.981
		c0.072,0,0.134,0.025,0.184,0.076c0.05,0.05,0.075,0.111,0.075,0.183s-0.025,0.132-0.076,0.183
		c-0.05,0.051-0.111,0.075-0.183,0.075c-0.07,0-0.131-0.024-0.181-0.075c-0.051-0.051-0.076-0.111-0.076-0.183
		s0.025-0.133,0.075-0.183C49.665,58.007,49.726,57.981,49.797,57.981z"/>
	<path fill="#FFFFFF" d="M51.713,58.814l-0.341,1.17l-0.035,0.142c-0.004,0.018-0.006,0.031-0.006,0.039
		c0,0.014,0.005,0.026,0.016,0.037c0.01,0.011,0.02,0.016,0.03,0.016c0.024,0,0.059-0.019,0.103-0.057
		c0.018-0.015,0.06-0.068,0.126-0.161l0.062,0.031c-0.083,0.152-0.172,0.264-0.267,0.333c-0.094,0.07-0.195,0.104-0.305,0.104
		c-0.066,0-0.118-0.017-0.153-0.052c-0.035-0.034-0.053-0.078-0.053-0.131c0-0.046,0.02-0.131,0.057-0.255l0.042-0.143
		c-0.136,0.233-0.267,0.398-0.392,0.496c-0.073,0.057-0.15,0.084-0.232,0.084c-0.107,0-0.186-0.044-0.233-0.133
		c-0.048-0.088-0.072-0.188-0.072-0.299c0-0.166,0.051-0.355,0.151-0.569s0.233-0.386,0.397-0.516
		c0.135-0.108,0.261-0.162,0.379-0.162c0.066,0,0.119,0.02,0.159,0.058c0.039,0.038,0.068,0.107,0.088,0.208l0.063-0.216
		L51.713,58.814z M51.15,59.148c0-0.095-0.015-0.163-0.044-0.205c-0.021-0.029-0.05-0.044-0.086-0.044
		c-0.037,0-0.074,0.018-0.113,0.053c-0.078,0.072-0.163,0.22-0.254,0.442c-0.091,0.222-0.136,0.414-0.136,0.575
		c0,0.063,0.01,0.107,0.03,0.135s0.043,0.041,0.068,0.041c0.053,0,0.105-0.03,0.159-0.091c0.078-0.087,0.147-0.193,0.21-0.318
		C51.095,59.516,51.15,59.32,51.15,59.148z"/>
	<path fill="#FFFFFF" d="M52.928,57.981l-0.582,1.979c-0.034,0.117-0.052,0.19-0.052,0.22c0,0.016,0.006,0.028,0.016,0.039
		s0.021,0.016,0.032,0.016c0.021,0,0.041-0.008,0.06-0.024c0.057-0.046,0.119-0.123,0.188-0.232l0.068,0.032
		c-0.111,0.178-0.221,0.305-0.329,0.381c-0.073,0.052-0.152,0.077-0.235,0.077c-0.077,0-0.139-0.021-0.185-0.063
		c-0.046-0.041-0.068-0.091-0.068-0.149c0-0.044,0.014-0.113,0.042-0.21l0.475-1.62c0.026-0.09,0.039-0.148,0.039-0.178
		c0-0.028-0.013-0.051-0.037-0.067c-0.033-0.023-0.083-0.033-0.149-0.029l0.02-0.067l0.592-0.104H52.928z"/>
	<path fill="#FFFFFF" d="M53.706,58.79l-0.36,1.25c-0.021,0.071-0.03,0.118-0.03,0.141c0,0.013,0.005,0.025,0.016,0.036
		c0.011,0.012,0.021,0.017,0.033,0.017c0.021,0,0.04-0.009,0.061-0.026c0.053-0.043,0.115-0.122,0.189-0.235l0.06,0.035
		c-0.177,0.309-0.365,0.462-0.564,0.462c-0.076,0-0.137-0.021-0.182-0.063c-0.045-0.043-0.067-0.098-0.067-0.163
		c0-0.043,0.01-0.099,0.029-0.165l0.245-0.841c0.023-0.08,0.035-0.142,0.035-0.183c0-0.025-0.012-0.049-0.034-0.068
		c-0.021-0.02-0.053-0.03-0.091-0.03c-0.018,0-0.039,0.001-0.063,0.002l0.022-0.07l0.597-0.097H53.706z M53.597,57.981
		c0.072,0,0.134,0.025,0.184,0.076c0.05,0.05,0.075,0.111,0.075,0.183s-0.025,0.132-0.076,0.183
		c-0.05,0.051-0.111,0.075-0.183,0.075c-0.07,0-0.131-0.024-0.181-0.075c-0.051-0.051-0.076-0.111-0.076-0.183
		s0.025-0.133,0.075-0.183C53.465,58.007,53.525,57.981,53.597,57.981z"/>
	<path fill="#FFFFFF" d="M55.129,58.79l-0.077,0.543h-0.065c-0.01-0.141-0.053-0.251-0.129-0.332
		c-0.077-0.081-0.159-0.121-0.247-0.121c-0.055,0-0.099,0.016-0.134,0.048c-0.035,0.031-0.053,0.069-0.053,0.114
		c0,0.037,0.008,0.072,0.022,0.105c0.016,0.032,0.05,0.077,0.103,0.133c0.185,0.2,0.297,0.337,0.337,0.412s0.061,0.155,0.061,0.24
		c0,0.093-0.024,0.181-0.07,0.263c-0.048,0.083-0.117,0.149-0.211,0.199c-0.093,0.05-0.189,0.074-0.291,0.074
		c-0.067,0-0.151-0.013-0.251-0.04c-0.065-0.019-0.115-0.028-0.147-0.028c-0.029,0-0.053,0.005-0.068,0.014
		c-0.017,0.009-0.035,0.027-0.055,0.055h-0.065l0.086-0.585h0.057c0.041,0.142,0.079,0.243,0.115,0.303
		c0.036,0.061,0.083,0.108,0.144,0.145c0.06,0.036,0.117,0.054,0.172,0.054c0.064,0,0.118-0.021,0.16-0.061
		c0.042-0.041,0.063-0.089,0.063-0.146c0-0.055-0.014-0.108-0.042-0.159c-0.027-0.052-0.091-0.132-0.19-0.241
		c-0.137-0.148-0.228-0.264-0.271-0.345c-0.03-0.059-0.046-0.125-0.046-0.2c0-0.127,0.046-0.232,0.138-0.316
		c0.093-0.085,0.222-0.127,0.388-0.127c0.073,0,0.162,0.013,0.268,0.039c0.053,0.013,0.095,0.02,0.127,0.02
		c0.045,0,0.082-0.02,0.11-0.059H55.129z"/>
	<path fill="#FFFFFF" d="M56.222,58.361l-0.141,0.479h0.23l-0.062,0.202h-0.228l-0.293,1.02c-0.02,0.063-0.028,0.111-0.028,0.144
		c0,0.016,0.005,0.028,0.016,0.04c0.011,0.011,0.022,0.017,0.035,0.017c0.02,0,0.04-0.008,0.062-0.024
		c0.054-0.041,0.116-0.112,0.188-0.215l0.062,0.039c-0.081,0.141-0.17,0.243-0.268,0.31c-0.098,0.065-0.192,0.098-0.286,0.098
		c-0.08,0-0.142-0.02-0.186-0.061c-0.044-0.04-0.066-0.092-0.066-0.153c0-0.068,0.016-0.155,0.046-0.262l0.277-0.951h-0.238
		l0.035-0.131c0.149-0.055,0.276-0.119,0.379-0.193c0.104-0.073,0.228-0.192,0.373-0.356H56.222z"/>
	<path fill="#FFFFFF" d="M57.53,58.79l-0.077,0.543h-0.065c-0.01-0.141-0.053-0.251-0.129-0.332
		c-0.077-0.081-0.159-0.121-0.247-0.121c-0.055,0-0.099,0.016-0.134,0.048c-0.035,0.031-0.053,0.069-0.053,0.114
		c0,0.037,0.008,0.072,0.022,0.105c0.016,0.032,0.05,0.077,0.103,0.133c0.185,0.2,0.297,0.337,0.337,0.412s0.061,0.155,0.061,0.24
		c0,0.093-0.024,0.181-0.07,0.263c-0.048,0.083-0.117,0.149-0.211,0.199c-0.093,0.05-0.189,0.074-0.291,0.074
		c-0.067,0-0.151-0.013-0.251-0.04c-0.065-0.019-0.115-0.028-0.147-0.028c-0.029,0-0.053,0.005-0.068,0.014
		c-0.017,0.009-0.035,0.027-0.055,0.055h-0.065l0.086-0.585h0.057c0.041,0.142,0.079,0.243,0.115,0.303
		c0.036,0.061,0.083,0.108,0.144,0.145c0.06,0.036,0.117,0.054,0.172,0.054c0.064,0,0.118-0.021,0.16-0.061
		c0.042-0.041,0.063-0.089,0.063-0.146c0-0.055-0.014-0.108-0.042-0.159c-0.027-0.052-0.091-0.132-0.19-0.241
		c-0.137-0.148-0.228-0.264-0.271-0.345c-0.03-0.059-0.046-0.125-0.046-0.2c0-0.127,0.046-0.232,0.138-0.316
		c0.093-0.085,0.222-0.127,0.388-0.127c0.073,0,0.162,0.013,0.268,0.039c0.053,0.013,0.095,0.02,0.127,0.02
		c0.045,0,0.082-0.02,0.11-0.059H57.53z"/>
</g>
</svg>
