<?xml version="1.0" encoding="utf-8"?>
<!-- Generator: Adobe Illustrator 16.0.0, SVG Export Plug-In . SVG Version: 6.00 Build 0)  -->
<!DOCTYPE svg PUBLIC "-//W3C//DTD SVG 1.1//EN" "http://www.w3.org/Graphics/SVG/1.1/DTD/svg11.dtd">
<svg version="1.1" id="Layer_1" xmlns="http://www.w3.org/2000/svg" xmlns:xlink="http://www.w3.org/1999/xlink" x="0px" y="0px"
	 width="96px" height="96px" viewBox="-16 -16 96 96" enable-background="new -16 -16 96 96" xml:space="preserve">
<polygon fill="#6D6D6D" points="-12.6,55.777 32.254,19.562 56.696,55.991 77.223,55.978 32.245,-11.564 "/>
<path fill="#B62225" d="M32.254,19.562C17.309,31.676,2.396,43.765-12.516,55.855c-0.028-0.028-0.057-0.053-0.083-0.078
	C2.334,33.354,17.266,10.93,32.243-11.565C47.257,10.975,62.22,33.449,77.223,55.977c-0.167,0.014-0.271,0.028-0.378,0.028
	c-6.647,0.002-13.298,0-19.947,0.014c-0.328,0-0.466-0.169-0.618-0.397c-2.788-4.186-5.581-8.37-8.363-12.559
	C43.479,36.4,39.045,29.74,34.617,23.08c-0.696-1.042-1.388-2.084-2.078-3.126C32.457,19.831,32.366,19.715,32.254,19.562z"/>
<path fill="#B62225" d="M31.322,25.992c6.668,10.01,13.307,19.973,19.991,29.998c-19.03,0-37.955,0-57.005,0
	C6.682,45.962,18.974,36.002,31.322,25.992z"/>
<g>
	<path fill="#FFFFFF" d="M0.814,67.663v0.274h-5.253v-0.274h0.334c0.292,0,0.526-0.051,0.704-0.153
		c0.129-0.07,0.227-0.189,0.296-0.356c0.055-0.118,0.083-0.431,0.083-0.934v-6.608c0-0.515-0.028-0.834-0.083-0.965
		c-0.054-0.129-0.164-0.238-0.329-0.335c-0.166-0.097-0.39-0.145-0.672-0.145h-0.333v-0.276h5.253v0.276H0.479
		c-0.292,0-0.526,0.052-0.704,0.154c-0.128,0.07-0.23,0.188-0.303,0.354c-0.054,0.12-0.083,0.43-0.083,0.936v6.608
		c0,0.513,0.029,0.833,0.086,0.962c0.057,0.13,0.167,0.24,0.334,0.337c0.165,0.096,0.389,0.145,0.67,0.145H0.814z"/>
	<path fill="#FFFFFF" d="M8.667,57.662l0.082,3.346H8.444c-0.145-0.837-0.495-1.514-1.056-2.025
		c-0.561-0.511-1.167-0.764-1.819-0.764c-0.504,0-0.903,0.133-1.196,0.401c-0.294,0.271-0.441,0.58-0.441,0.93
		c0,0.222,0.052,0.42,0.156,0.593c0.144,0.232,0.372,0.46,0.689,0.688c0.232,0.162,0.767,0.453,1.607,0.868
		c1.176,0.579,1.969,1.124,2.378,1.639c0.404,0.511,0.608,1.099,0.608,1.761c0,0.84-0.327,1.56-0.981,2.167
		c-0.655,0.604-1.485,0.907-2.493,0.907c-0.315,0-0.614-0.031-0.896-0.097c-0.282-0.063-0.635-0.184-1.06-0.361
		c-0.238-0.099-0.432-0.15-0.585-0.15c-0.129,0-0.266,0.05-0.407,0.15c-0.142,0.101-0.26,0.25-0.348,0.452H2.325v-3.794h0.274
		c0.217,1.068,0.637,1.882,1.255,2.442c0.621,0.562,1.287,0.84,2.004,0.84c0.553,0,0.994-0.151,1.322-0.451
		c0.329-0.303,0.493-0.653,0.493-1.053c0-0.238-0.064-0.467-0.189-0.689c-0.126-0.224-0.317-0.435-0.575-0.635
		c-0.257-0.198-0.711-0.46-1.364-0.781c-0.915-0.452-1.57-0.832-1.97-1.148c-0.4-0.314-0.707-0.669-0.923-1.06
		c-0.215-0.391-0.322-0.819-0.322-1.288c0-0.801,0.295-1.481,0.882-2.046c0.589-0.563,1.329-0.845,2.223-0.845
		c0.326,0,0.642,0.04,0.947,0.12c0.233,0.057,0.516,0.168,0.849,0.33c0.334,0.16,0.568,0.24,0.701,0.24
		c0.129,0,0.23-0.039,0.305-0.119c0.073-0.078,0.144-0.271,0.207-0.571h0.223V57.662z"/>
	<path fill="#FFFFFF" d="M14.491,58.469v4.09h0.199c0.637,0,1.099-0.201,1.386-0.602c0.287-0.398,0.468-0.988,0.547-1.77h0.282v5.26
		h-0.282c-0.058-0.573-0.184-1.042-0.374-1.407s-0.412-0.612-0.664-0.738c-0.251-0.125-0.617-0.189-1.096-0.189v2.832
		c0,0.552,0.022,0.892,0.07,1.014c0.047,0.123,0.135,0.224,0.263,0.305c0.128,0.079,0.335,0.117,0.623,0.117h0.6
		c0.938,0,1.69-0.217,2.255-0.65c0.567-0.435,0.973-1.097,1.221-1.984h0.274l-0.453,3.192h-8.681v-0.274h0.333
		c0.292,0,0.526-0.051,0.704-0.153c0.128-0.07,0.227-0.189,0.296-0.356c0.055-0.118,0.083-0.431,0.083-0.934v-6.608
		c0-0.456-0.013-0.732-0.038-0.837c-0.049-0.173-0.14-0.308-0.274-0.399c-0.188-0.139-0.443-0.208-0.769-0.208h-0.334v-0.276h8.409
		v2.971h-0.282c-0.143-0.725-0.344-1.246-0.603-1.562c-0.26-0.317-0.626-0.547-1.1-0.697c-0.277-0.091-0.794-0.134-1.555-0.134
		H14.491z"/>
	<path fill="#FFFFFF" d="M30.981,57.662v3.481h-0.289c-0.217-0.911-0.623-1.606-1.217-2.09c-0.591-0.483-1.262-0.725-2.015-0.725
		c-0.627,0-1.202,0.18-1.725,0.538c-0.523,0.361-0.906,0.833-1.148,1.417c-0.311,0.744-0.467,1.574-0.467,2.488
		c0,0.898,0.116,1.719,0.341,2.457c0.228,0.735,0.582,1.295,1.066,1.673c0.486,0.377,1.111,0.568,1.883,0.568
		c0.631,0,1.211-0.14,1.737-0.414c0.526-0.277,1.08-0.756,1.661-1.431v0.866c-0.562,0.587-1.149,1.014-1.759,1.277
		c-0.61,0.267-1.322,0.397-2.138,0.397c-1.071,0-2.024-0.215-2.854-0.644c-0.833-0.43-1.474-1.048-1.927-1.854
		c-0.452-0.805-0.677-1.66-0.677-2.571c0-0.955,0.25-1.865,0.751-2.724c0.502-0.859,1.178-1.526,2.03-2
		c0.851-0.473,1.756-0.71,2.714-0.71c0.708,0,1.453,0.151,2.238,0.458c0.455,0.177,0.742,0.267,0.865,0.267
		c0.157,0,0.295-0.059,0.412-0.175c0.116-0.114,0.19-0.299,0.226-0.55h0.29V57.662z"/>
	<path fill="#FFFFFF" d="M45.941,64.41l-0.378,3.525h-8.92v-0.273h0.335c0.29,0,0.524-0.054,0.702-0.156
		c0.129-0.068,0.229-0.186,0.296-0.354c0.055-0.117,0.082-0.431,0.082-0.934v-6.606c0-0.515-0.027-0.834-0.082-0.965
		c-0.054-0.129-0.164-0.238-0.329-0.335c-0.166-0.097-0.39-0.145-0.672-0.145h-0.333v-0.276h5.354v0.276h-0.436
		c-0.291,0-0.527,0.052-0.704,0.154c-0.13,0.07-0.229,0.188-0.303,0.354c-0.056,0.12-0.083,0.43-0.083,0.936v6.399
		c0,0.514,0.031,0.842,0.09,0.982c0.06,0.14,0.173,0.246,0.347,0.315c0.124,0.042,0.422,0.065,0.897,0.065h0.835
		c0.535,0,0.978-0.095,1.333-0.28c0.357-0.188,0.664-0.484,0.924-0.888c0.26-0.405,0.505-1.004,0.738-1.795L45.941,64.41
		L45.941,64.41z"/>
	<path fill="#FFFFFF" d="M55.04,57.891v2.72h-0.268c-0.157-0.629-0.335-1.079-0.525-1.354c-0.193-0.274-0.457-0.493-0.793-0.654
		c-0.188-0.091-0.515-0.134-0.984-0.134h-0.75v7.749c0,0.513,0.028,0.834,0.087,0.962c0.056,0.129,0.167,0.239,0.335,0.338
		c0.163,0.095,0.39,0.145,0.676,0.145h0.334v0.273h-5.26v-0.273h0.335c0.29,0,0.525-0.054,0.704-0.156
		c0.126-0.068,0.229-0.186,0.303-0.354c0.055-0.117,0.082-0.431,0.082-0.934v-7.749h-0.727c-0.677,0-1.166,0.145-1.474,0.431
		c-0.428,0.397-0.702,0.971-0.814,1.711H46.02v-2.72H55.04z"/>
	<path fill="#FFFFFF" d="M56.166,67.936v-0.273H56.5c0.292,0,0.514-0.046,0.671-0.138c0.155-0.094,0.271-0.216,0.342-0.376
		c0.047-0.104,0.068-0.412,0.068-0.931v-6.606c0-0.515-0.028-0.834-0.083-0.965c-0.055-0.129-0.164-0.238-0.329-0.335
		c-0.166-0.097-0.39-0.145-0.67-0.145h-0.335v-0.276h4.496c1.2,0,2.167,0.164,2.896,0.491c0.894,0.398,1.571,1.006,2.035,1.813
		c0.462,0.81,0.693,1.726,0.693,2.748c0,0.707-0.114,1.357-0.341,1.951c-0.228,0.595-0.521,1.088-0.884,1.476
		c-0.358,0.388-0.774,0.7-1.247,0.935c-0.472,0.232-1.05,0.414-1.73,0.544c-0.301,0.058-0.774,0.089-1.423,0.089h-4.494V67.936z
		 M59.998,58.461v7.837c0,0.415,0.02,0.671,0.057,0.764c0.041,0.095,0.106,0.166,0.201,0.215c0.133,0.074,0.328,0.111,0.579,0.111
		c0.825,0,1.454-0.281,1.888-0.844c0.595-0.763,0.889-1.941,0.889-3.541c0-1.289-0.203-2.319-0.606-3.088
		c-0.321-0.604-0.733-1.013-1.237-1.232C61.412,58.53,60.821,58.455,59.998,58.461z"/>
</g>
<g>
	<path fill="#FFFFFF" d="M-5.669,70.488l-0.292,1.188h-0.084c-0.018-0.186-0.052-0.333-0.101-0.445
		c-0.072-0.161-0.167-0.286-0.288-0.375c-0.12-0.087-0.25-0.133-0.389-0.133c-0.133,0-0.25,0.053-0.352,0.154
		c-0.1,0.103-0.151,0.216-0.151,0.346c0,0.128,0.036,0.252,0.105,0.374c0.068,0.124,0.234,0.309,0.492,0.558
		c0.208,0.197,0.347,0.367,0.419,0.511c0.072,0.144,0.106,0.297,0.106,0.464c0,0.186-0.049,0.357-0.15,0.517
		c-0.1,0.159-0.245,0.281-0.433,0.369c-0.189,0.085-0.405,0.131-0.645,0.131c-0.148,0-0.334-0.024-0.557-0.065
		c-0.224-0.046-0.375-0.068-0.448-0.068c-0.059,0-0.111,0.011-0.156,0.028c-0.047,0.019-0.105,0.053-0.173,0.105h-0.099l0.312-1.334
		h0.097c0.023,0.233,0.07,0.432,0.142,0.599c0.071,0.161,0.176,0.291,0.309,0.383c0.135,0.092,0.288,0.138,0.459,0.138
		c0.17,0,0.312-0.056,0.427-0.169c0.114-0.111,0.172-0.243,0.172-0.396c0-0.129-0.033-0.252-0.097-0.372
		c-0.065-0.117-0.212-0.289-0.442-0.519c-0.228-0.227-0.389-0.43-0.475-0.607c-0.063-0.133-0.095-0.273-0.095-0.424
		c0-0.258,0.103-0.483,0.306-0.672c0.204-0.189,0.472-0.284,0.803-0.284c0.15,0,0.345,0.036,0.589,0.101
		c0.143,0.041,0.243,0.06,0.302,0.06c0.051,0,0.094-0.011,0.135-0.031c0.04-0.021,0.086-0.063,0.139-0.129H-5.669L-5.669,70.488z"/>
	<path fill="#FFFFFF" d="M-4.411,71.676l-0.5,1.75c-0.024,0.084-0.037,0.14-0.037,0.169c0,0.019,0.005,0.03,0.018,0.037
		c0.013,0.014,0.031,0.021,0.049,0.021c0.079,0,0.184-0.068,0.316-0.211c0.189-0.204,0.387-0.498,0.595-0.882l0.234-0.788
		l0.652-0.025l-0.494,1.703c-0.041,0.146-0.062,0.226-0.062,0.248c0,0.013,0.005,0.027,0.02,0.041
		c0.013,0.015,0.025,0.023,0.039,0.023c0.025,0,0.047-0.012,0.07-0.031c0.062-0.049,0.144-0.15,0.245-0.301l0.088,0.063
		c-0.238,0.431-0.5,0.645-0.789,0.645c-0.105,0-0.189-0.025-0.25-0.081c-0.062-0.054-0.091-0.125-0.091-0.215
		c0-0.091,0.021-0.21,0.064-0.352l0.126-0.435c-0.222,0.325-0.384,0.544-0.487,0.655c-0.154,0.17-0.284,0.284-0.391,0.342
		c-0.108,0.056-0.207,0.083-0.303,0.083c-0.091,0-0.171-0.032-0.236-0.098c-0.066-0.069-0.1-0.153-0.1-0.256
		c0-0.088,0.022-0.205,0.065-0.355l0.291-1.029c0.049-0.168,0.072-0.28,0.072-0.339c0-0.025-0.007-0.049-0.021-0.068
		c-0.012-0.02-0.037-0.034-0.068-0.046s-0.091-0.017-0.177-0.017l0.027-0.097l0.879-0.154H-4.411L-4.411,71.676z"/>
	<path fill="#FFFFFF" d="M-1.627,71.676l-0.388,1.448c0.32-0.705,0.56-1.141,0.721-1.304c0.094-0.097,0.193-0.146,0.299-0.146
		c0.072,0,0.131,0.027,0.176,0.078c0.044,0.054,0.068,0.128,0.068,0.224c0,0.165-0.042,0.307-0.123,0.419
		c-0.052,0.073-0.108,0.109-0.172,0.109c-0.069,0-0.121-0.031-0.154-0.097c-0.034-0.063-0.059-0.1-0.073-0.11
		C-1.285,72.286-1.3,72.28-1.317,72.28c-0.018,0-0.035,0.006-0.054,0.015c-0.038,0.021-0.088,0.071-0.147,0.152
		c-0.062,0.08-0.137,0.212-0.226,0.399c-0.089,0.188-0.158,0.346-0.209,0.475c-0.05,0.131-0.12,0.38-0.21,0.741h-0.623l0.425-1.707
		c0.031-0.128,0.047-0.211,0.047-0.252c0-0.047-0.008-0.085-0.024-0.11c-0.017-0.024-0.039-0.044-0.068-0.055
		c-0.03-0.014-0.088-0.021-0.177-0.021l0.023-0.074l0.779-0.169L-1.627,71.676L-1.627,71.676z"/>
	<path fill="#FFFFFF" d="M-0.097,74.137h-0.092c0.004-0.141,0.007-0.245,0.007-0.319c0-0.196-0.015-0.479-0.046-0.849
		c-0.03-0.37-0.063-0.617-0.102-0.742c-0.029-0.09-0.067-0.154-0.115-0.198c-0.032-0.027-0.076-0.041-0.126-0.041
		c-0.03,0-0.065,0.003-0.106,0.012v-0.094l0.858-0.229c0.171,0.47,0.255,1.069,0.249,1.801c0.252-0.24,0.427-0.436,0.521-0.584
		c0.096-0.147,0.145-0.274,0.145-0.373c0-0.079-0.03-0.158-0.089-0.24c-0.061-0.083-0.096-0.142-0.112-0.175
		c-0.015-0.033-0.022-0.071-0.022-0.113c0-0.093,0.029-0.162,0.088-0.225c0.059-0.06,0.132-0.091,0.221-0.091
		c0.094,0,0.167,0.031,0.219,0.091c0.071,0.085,0.108,0.184,0.108,0.299c0,0.121-0.022,0.234-0.063,0.351
		c-0.042,0.114-0.115,0.248-0.218,0.402c-0.103,0.154-0.215,0.299-0.341,0.424C0.66,73.478,0.331,73.775-0.097,74.137z"/>
	<path fill="#FFFFFF" d="M2.344,73.099c-0.015,0.112-0.024,0.204-0.024,0.276c0,0.129,0.038,0.231,0.112,0.309
		c0.074,0.078,0.176,0.116,0.3,0.116c0.121,0,0.241-0.031,0.363-0.09c0.121-0.058,0.26-0.16,0.42-0.306l0.078,0.071
		c-0.198,0.236-0.39,0.405-0.578,0.509c-0.188,0.101-0.394,0.152-0.621,0.152c-0.288,0-0.485-0.068-0.596-0.206
		c-0.11-0.138-0.164-0.297-0.164-0.477c0-0.279,0.082-0.563,0.246-0.845s0.386-0.508,0.67-0.679
		c0.283-0.168,0.566-0.255,0.852-0.255c0.143,0,0.254,0.032,0.327,0.103c0.074,0.068,0.111,0.156,0.111,0.261
		c0,0.126-0.036,0.248-0.108,0.366c-0.1,0.162-0.225,0.291-0.377,0.391c-0.15,0.101-0.32,0.174-0.506,0.226
		C2.723,73.055,2.555,73.081,2.344,73.099z M2.368,72.964c0.151-0.021,0.267-0.052,0.351-0.094c0.084-0.038,0.165-0.097,0.245-0.183
		c0.081-0.087,0.15-0.193,0.208-0.323C3.23,72.233,3.26,72.112,3.26,72c0-0.049-0.013-0.087-0.039-0.115
		c-0.027-0.025-0.061-0.039-0.102-0.039c-0.082,0-0.175,0.058-0.278,0.173C2.649,72.228,2.492,72.542,2.368,72.964z"/>
	<path fill="#FFFFFF" d="M3.995,71.907l0.794-0.231c0.063,0.078,0.108,0.154,0.133,0.224c0.047,0.121,0.08,0.29,0.099,0.506
		c0.036,0.422,0.062,0.874,0.075,1.354c0.183-0.243,0.394-0.563,0.631-0.964c0.072-0.119,0.108-0.231,0.108-0.336
		c0-0.07-0.041-0.133-0.125-0.192c-0.084-0.061-0.135-0.106-0.156-0.142c-0.021-0.032-0.031-0.076-0.031-0.131
		c0-0.086,0.031-0.161,0.094-0.224c0.062-0.063,0.138-0.095,0.228-0.095c0.094,0,0.177,0.035,0.246,0.11
		c0.069,0.071,0.104,0.156,0.104,0.254c0,0.114-0.032,0.25-0.097,0.4c-0.064,0.151-0.215,0.411-0.453,0.782
		c-0.304,0.472-0.603,0.882-0.894,1.225c-0.188,0.222-0.339,0.381-0.455,0.476c-0.115,0.098-0.234,0.175-0.358,0.231
		c-0.074,0.032-0.148,0.049-0.218,0.049c-0.098,0-0.182-0.033-0.251-0.104c-0.07-0.067-0.104-0.15-0.104-0.243
		c0-0.095,0.031-0.175,0.094-0.241c0.063-0.064,0.136-0.095,0.22-0.095c0.104,0,0.2,0.053,0.288,0.162
		c0.059,0.073,0.108,0.109,0.146,0.109c0.039,0,0.077-0.01,0.116-0.032c0.051-0.026,0.124-0.091,0.216-0.188
		c0.01-0.214,0.016-0.38,0.016-0.487c0-0.149-0.008-0.357-0.02-0.625l-0.044-0.983c-0.016-0.179-0.055-0.31-0.116-0.391
		c-0.048-0.058-0.111-0.085-0.187-0.085c-0.03,0-0.062,0.004-0.099,0.006v-0.1H3.995z"/>
	<path fill="#FFFFFF" d="M10.05,71.712l-0.5,1.714l-0.052,0.208c-0.004,0.027-0.007,0.046-0.007,0.058
		c0,0.021,0.007,0.039,0.022,0.055c0.014,0.016,0.031,0.022,0.045,0.022c0.036,0,0.086-0.027,0.15-0.083
		c0.026-0.021,0.088-0.1,0.184-0.236l0.091,0.046c-0.122,0.224-0.252,0.386-0.391,0.486c-0.137,0.104-0.286,0.153-0.446,0.153
		c-0.099,0-0.173-0.023-0.225-0.075c-0.051-0.05-0.078-0.115-0.078-0.191c0-0.069,0.028-0.193,0.082-0.376l0.062-0.209
		c-0.2,0.342-0.391,0.585-0.575,0.728c-0.107,0.082-0.221,0.122-0.34,0.122c-0.157,0-0.272-0.063-0.342-0.194
		c-0.07-0.128-0.105-0.274-0.105-0.438c0-0.242,0.072-0.52,0.221-0.834c0.148-0.313,0.341-0.564,0.582-0.756
		c0.198-0.158,0.384-0.238,0.557-0.238c0.096,0,0.173,0.03,0.232,0.086c0.058,0.055,0.1,0.156,0.128,0.307l0.092-0.319L10.05,71.712
		z M9.227,72.201c0-0.142-0.021-0.239-0.065-0.302c-0.03-0.041-0.073-0.065-0.125-0.065c-0.053,0-0.109,0.028-0.164,0.079
		c-0.116,0.105-0.24,0.321-0.373,0.648C8.366,72.886,8.3,73.169,8.3,73.404c0,0.092,0.014,0.157,0.046,0.196
		c0.03,0.043,0.063,0.061,0.099,0.061c0.077,0,0.155-0.043,0.234-0.133c0.112-0.126,0.215-0.281,0.306-0.466
		C9.147,72.74,9.227,72.454,9.227,72.201z"/>
	<path fill="#FFFFFF" d="M11.571,71.676l-0.319,1.106c0.213-0.322,0.375-0.544,0.481-0.663c0.157-0.17,0.292-0.287,0.404-0.352
		c0.115-0.06,0.221-0.091,0.32-0.091c0.089,0,0.166,0.031,0.229,0.102c0.064,0.065,0.096,0.15,0.096,0.257
		c0,0.097-0.021,0.214-0.062,0.35l-0.331,1.102c-0.027,0.095-0.041,0.158-0.041,0.186c0,0.02,0.006,0.033,0.019,0.051
		c0.014,0.011,0.027,0.019,0.039,0.019c0.019,0,0.036-0.008,0.055-0.019c0.06-0.053,0.122-0.122,0.183-0.215
		c0.016-0.024,0.041-0.06,0.076-0.105l0.099,0.058c-0.252,0.424-0.52,0.637-0.796,0.637c-0.107,0-0.189-0.028-0.25-0.082
		c-0.06-0.057-0.091-0.123-0.091-0.208c0-0.07,0.02-0.178,0.062-0.323l0.322-1.099c0.022-0.071,0.032-0.126,0.032-0.159
		c0-0.022-0.007-0.036-0.023-0.05c-0.016-0.017-0.034-0.023-0.055-0.023c-0.063,0-0.144,0.043-0.237,0.135
		c-0.238,0.226-0.466,0.563-0.687,1.012l-0.211,0.764h-0.657l0.482-1.654c0.046-0.161,0.069-0.278,0.069-0.349
		c0-0.027-0.007-0.051-0.021-0.072c-0.013-0.019-0.036-0.036-0.066-0.044c-0.031-0.013-0.089-0.019-0.176-0.019l0.027-0.099
		l0.87-0.151L11.571,71.676L11.571,71.676z"/>
	<path fill="#FFFFFF" d="M15.976,70.488l-0.838,2.887c-0.053,0.181-0.08,0.289-0.08,0.327c0,0.021,0.006,0.034,0.021,0.048
		c0.013,0.014,0.027,0.023,0.043,0.023c0.029,0,0.062-0.017,0.1-0.046c0.063-0.046,0.141-0.137,0.231-0.273l0.092,0.05
		c-0.244,0.423-0.509,0.633-0.799,0.633c-0.103,0-0.184-0.025-0.239-0.081c-0.056-0.054-0.084-0.121-0.084-0.209
		c0-0.08,0.022-0.194,0.067-0.343l0.077-0.263c-0.214,0.379-0.4,0.632-0.558,0.756c-0.121,0.094-0.238,0.14-0.351,0.14
		c-0.129,0-0.237-0.052-0.325-0.155c-0.09-0.104-0.133-0.257-0.133-0.46c0-0.255,0.058-0.507,0.17-0.755
		c0.115-0.251,0.245-0.46,0.394-0.625c0.149-0.166,0.29-0.285,0.425-0.355c0.135-0.074,0.268-0.109,0.399-0.109
		c0.066,0,0.125,0.015,0.179,0.04c0.052,0.027,0.11,0.081,0.179,0.155l0.191-0.642c0.046-0.159,0.07-0.274,0.07-0.341
		c0-0.039-0.016-0.076-0.046-0.105c-0.031-0.029-0.072-0.043-0.124-0.043c-0.025,0-0.054,0.003-0.091,0.008l0.026-0.101l0.848-0.156
		h0.154V70.488z M14.841,72.124c0-0.104-0.021-0.181-0.062-0.229c-0.041-0.047-0.089-0.071-0.146-0.071
		c-0.053,0-0.113,0.028-0.177,0.085c-0.121,0.109-0.249,0.332-0.383,0.664c-0.132,0.331-0.199,0.609-0.199,0.839
		c0,0.08,0.015,0.144,0.044,0.183c0.029,0.037,0.062,0.058,0.096,0.058c0.061,0,0.12-0.027,0.181-0.082
		c0.147-0.131,0.29-0.355,0.431-0.673C14.771,72.577,14.841,72.319,14.841,72.124z"/>
	<path fill="#FFFFFF" d="M20.858,70.488l-0.258,1.113h-0.099c-0.012-0.302-0.086-0.529-0.223-0.678s-0.315-0.221-0.535-0.221
		c-0.238,0-0.473,0.101-0.708,0.303c-0.235,0.204-0.433,0.514-0.598,0.931c-0.131,0.34-0.198,0.673-0.198,1.004
		c0,0.295,0.072,0.52,0.216,0.676c0.146,0.153,0.344,0.234,0.597,0.234c0.206,0,0.392-0.045,0.56-0.134
		c0.169-0.092,0.337-0.235,0.51-0.438h0.124c-0.212,0.319-0.428,0.543-0.645,0.672c-0.217,0.131-0.483,0.194-0.797,0.194
		c-0.421,0-0.761-0.126-1.016-0.384c-0.257-0.255-0.386-0.587-0.386-0.997c0-0.387,0.102-0.752,0.307-1.104
		c0.203-0.349,0.498-0.631,0.882-0.848c0.384-0.216,0.765-0.325,1.144-0.325c0.146,0,0.325,0.033,0.54,0.094
		c0.11,0.029,0.187,0.046,0.229,0.046c0.085,0,0.172-0.046,0.26-0.14H20.858L20.858,70.488z"/>
	<path fill="#FFFFFF" d="M22.311,71.676c0.135,0,0.263,0.03,0.381,0.092c0.12,0.064,0.21,0.152,0.271,0.265
		c0.062,0.112,0.092,0.235,0.092,0.37c0,0.276-0.077,0.558-0.233,0.835c-0.156,0.277-0.36,0.499-0.614,0.659
		c-0.253,0.158-0.51,0.238-0.768,0.238c-0.233,0-0.415-0.067-0.543-0.206c-0.127-0.141-0.191-0.311-0.191-0.513
		c0-0.239,0.048-0.461,0.143-0.67c0.095-0.212,0.215-0.394,0.364-0.549c0.148-0.153,0.316-0.28,0.506-0.377
		C21.912,71.721,22.106,71.676,22.311,71.676z M22.205,71.813c-0.091,0-0.166,0.027-0.226,0.079
		c-0.12,0.109-0.257,0.364-0.408,0.761c-0.152,0.4-0.227,0.758-0.227,1.075c0,0.079,0.023,0.146,0.071,0.197
		c0.049,0.051,0.104,0.077,0.171,0.077s0.125-0.021,0.179-0.061c0.075-0.063,0.167-0.201,0.278-0.417
		c0.11-0.216,0.199-0.455,0.271-0.713c0.07-0.262,0.105-0.498,0.105-0.715c0-0.09-0.021-0.158-0.065-0.207
		C22.313,71.838,22.262,71.813,22.205,71.813z"/>
	<path fill="#FFFFFF" d="M24.625,71.676l-0.319,1.106c0.214-0.322,0.375-0.544,0.482-0.663c0.157-0.17,0.292-0.287,0.405-0.352
		c0.114-0.06,0.22-0.091,0.32-0.091c0.088,0,0.166,0.031,0.228,0.102c0.063,0.065,0.096,0.15,0.096,0.257
		c0,0.097-0.021,0.214-0.062,0.35l-0.33,1.102c-0.028,0.095-0.041,0.158-0.041,0.186c0,0.02,0.005,0.033,0.02,0.051
		c0.013,0.011,0.025,0.019,0.04,0.019c0.017,0,0.036-0.008,0.054-0.019c0.06-0.053,0.122-0.122,0.183-0.215
		c0.014-0.024,0.04-0.06,0.074-0.105l0.098,0.058c-0.252,0.424-0.519,0.637-0.796,0.637c-0.104,0-0.188-0.028-0.25-0.082
		c-0.06-0.057-0.091-0.123-0.091-0.208c0-0.07,0.021-0.178,0.062-0.323l0.323-1.099c0.021-0.071,0.031-0.126,0.031-0.159
		c0-0.022-0.007-0.036-0.023-0.05c-0.017-0.017-0.033-0.023-0.055-0.023c-0.064,0-0.144,0.043-0.237,0.135
		c-0.237,0.226-0.466,0.563-0.687,1.012l-0.211,0.764h-0.658l0.483-1.654c0.047-0.161,0.069-0.278,0.069-0.349
		c0-0.027-0.008-0.051-0.021-0.072c-0.014-0.019-0.035-0.036-0.065-0.044c-0.032-0.013-0.09-0.019-0.176-0.019l0.027-0.099
		l0.87-0.151L24.625,71.676L24.625,71.676z"/>
	<path fill="#FFFFFF" d="M28.114,71.676l-0.113,0.797h-0.095c-0.014-0.209-0.079-0.368-0.189-0.487
		c-0.112-0.119-0.233-0.178-0.362-0.178c-0.079,0-0.144,0.024-0.196,0.069c-0.051,0.047-0.077,0.103-0.077,0.168
		c0,0.056,0.01,0.106,0.034,0.152c0.021,0.05,0.072,0.116,0.149,0.195c0.273,0.295,0.437,0.496,0.496,0.604
		c0.059,0.113,0.088,0.231,0.088,0.354c0,0.137-0.033,0.267-0.102,0.387c-0.07,0.121-0.172,0.216-0.308,0.291
		c-0.137,0.072-0.28,0.107-0.426,0.107c-0.101,0-0.224-0.018-0.369-0.059c-0.1-0.024-0.171-0.039-0.22-0.039
		c-0.042,0-0.076,0.005-0.101,0.019c-0.023,0.014-0.051,0.041-0.079,0.081h-0.095l0.125-0.857h0.083
		c0.06,0.207,0.117,0.356,0.168,0.445c0.052,0.088,0.122,0.156,0.209,0.212c0.087,0.052,0.171,0.08,0.252,0.08
		c0.094,0,0.172-0.032,0.234-0.09c0.062-0.061,0.092-0.131,0.092-0.215c0-0.081-0.02-0.159-0.059-0.234
		c-0.042-0.074-0.134-0.191-0.281-0.352c-0.2-0.217-0.334-0.386-0.397-0.507c-0.045-0.086-0.068-0.183-0.068-0.292
		c0-0.186,0.068-0.341,0.203-0.464c0.134-0.125,0.323-0.187,0.568-0.187c0.106,0,0.238,0.021,0.392,0.058
		c0.079,0.019,0.14,0.028,0.185,0.028c0.067,0,0.122-0.028,0.164-0.086L28.114,71.676L28.114,71.676z"/>
	<path fill="#FFFFFF" d="M29.716,71.048l-0.207,0.701h0.337l-0.09,0.296h-0.332l-0.432,1.497c-0.027,0.09-0.042,0.161-0.042,0.211
		c0,0.022,0.008,0.04,0.024,0.058c0.016,0.016,0.033,0.024,0.052,0.024c0.029,0,0.06-0.013,0.091-0.035
		c0.078-0.06,0.171-0.164,0.275-0.316l0.091,0.059c-0.119,0.207-0.25,0.357-0.392,0.454c-0.143,0.095-0.283,0.144-0.421,0.144
		c-0.117,0-0.208-0.028-0.272-0.088c-0.064-0.06-0.096-0.136-0.096-0.226c0-0.099,0.023-0.228,0.067-0.384l0.408-1.395h-0.351
		l0.051-0.191c0.22-0.083,0.406-0.175,0.557-0.282c0.152-0.108,0.334-0.284,0.547-0.522h0.134V71.048z"/>
	<path fill="#FFFFFF" d="M30.92,71.676l-0.389,1.448c0.319-0.705,0.559-1.141,0.721-1.304c0.094-0.097,0.194-0.146,0.299-0.146
		c0.072,0,0.131,0.027,0.176,0.078c0.043,0.054,0.068,0.128,0.068,0.224c0,0.165-0.042,0.307-0.123,0.419
		c-0.051,0.073-0.108,0.109-0.172,0.109c-0.069,0-0.121-0.031-0.154-0.097c-0.035-0.063-0.059-0.1-0.072-0.11
		c-0.013-0.012-0.028-0.018-0.044-0.018c-0.018,0-0.034,0.006-0.054,0.015c-0.038,0.021-0.088,0.071-0.147,0.152
		c-0.062,0.08-0.136,0.212-0.226,0.399s-0.158,0.346-0.21,0.475c-0.05,0.131-0.12,0.38-0.21,0.741h-0.622l0.425-1.707
		c0.031-0.128,0.046-0.211,0.046-0.252c0-0.047-0.008-0.085-0.025-0.11c-0.016-0.024-0.038-0.044-0.067-0.055
		c-0.029-0.014-0.088-0.021-0.178-0.021l0.023-0.074l0.779-0.169L30.92,71.676L30.92,71.676z"/>
	<path fill="#FFFFFF" d="M33.127,71.676l-0.5,1.75c-0.023,0.084-0.035,0.14-0.035,0.169c0,0.016,0.007,0.029,0.018,0.036
		c0.013,0.014,0.032,0.021,0.05,0.021c0.078,0,0.185-0.071,0.316-0.213c0.188-0.204,0.386-0.499,0.595-0.88l0.235-0.792l0.649-0.022
		l-0.494,1.704c-0.04,0.146-0.062,0.226-0.062,0.248c0,0.013,0.005,0.027,0.021,0.041c0.011,0.016,0.027,0.023,0.038,0.023
		c0.024,0,0.047-0.012,0.069-0.031c0.063-0.049,0.144-0.15,0.245-0.301l0.087,0.063c-0.236,0.431-0.501,0.645-0.787,0.645
		c-0.105,0-0.188-0.025-0.252-0.081c-0.061-0.054-0.09-0.125-0.09-0.215c0-0.091,0.021-0.21,0.064-0.352l0.126-0.435
		c-0.223,0.325-0.386,0.544-0.487,0.655c-0.152,0.17-0.283,0.284-0.39,0.342c-0.108,0.056-0.208,0.083-0.304,0.083
		c-0.091,0-0.171-0.032-0.236-0.098c-0.066-0.069-0.1-0.153-0.1-0.256c0-0.088,0.022-0.205,0.064-0.355l0.291-1.029
		c0.049-0.168,0.073-0.28,0.073-0.339c0-0.025-0.006-0.049-0.021-0.068c-0.013-0.02-0.036-0.034-0.069-0.046
		c-0.03-0.012-0.09-0.017-0.176-0.017l0.026-0.097l0.88-0.154H33.127L33.127,71.676z"/>
	<path fill="#FFFFFF" d="M36.642,73.444l0.077,0.069c-0.165,0.198-0.331,0.346-0.491,0.438c-0.215,0.124-0.438,0.186-0.668,0.186
		c-0.153,0-0.291-0.031-0.411-0.097c-0.116-0.066-0.208-0.16-0.264-0.278c-0.058-0.12-0.086-0.242-0.086-0.368
		c0-0.282,0.078-0.56,0.229-0.829c0.151-0.273,0.355-0.49,0.604-0.647c0.251-0.157,0.497-0.239,0.741-0.239
		c0.194,0,0.338,0.043,0.438,0.13c0.098,0.088,0.147,0.193,0.147,0.318c0,0.116-0.036,0.215-0.11,0.297
		c-0.075,0.079-0.155,0.118-0.247,0.118c-0.08,0-0.146-0.025-0.197-0.076c-0.054-0.051-0.079-0.112-0.079-0.183
		c0-0.093,0.046-0.173,0.139-0.243c0.064-0.047,0.096-0.09,0.096-0.126c0-0.03-0.014-0.055-0.038-0.075
		c-0.033-0.027-0.079-0.04-0.135-0.04c-0.146,0-0.281,0.059-0.406,0.175c-0.168,0.153-0.296,0.349-0.387,0.587
		c-0.09,0.236-0.136,0.462-0.136,0.676c0,0.168,0.046,0.304,0.137,0.401c0.092,0.1,0.2,0.153,0.325,0.153
		c0.11,0,0.229-0.029,0.357-0.087S36.526,73.56,36.642,73.444z"/>
	<path fill="#FFFFFF" d="M38.515,71.048l-0.207,0.701h0.338l-0.09,0.296h-0.335l-0.43,1.497c-0.029,0.09-0.041,0.161-0.041,0.211
		c0,0.022,0.007,0.04,0.024,0.058c0.016,0.016,0.031,0.024,0.051,0.024c0.028,0,0.057-0.013,0.091-0.035
		c0.078-0.06,0.171-0.164,0.276-0.316l0.09,0.059c-0.119,0.207-0.251,0.357-0.395,0.454c-0.142,0.095-0.279,0.144-0.418,0.144
		c-0.117,0-0.208-0.028-0.273-0.088c-0.064-0.06-0.096-0.136-0.096-0.226c0-0.099,0.023-0.228,0.065-0.384l0.407-1.395h-0.35
		l0.052-0.191c0.22-0.083,0.405-0.175,0.555-0.282c0.154-0.108,0.336-0.284,0.549-0.522h0.136V71.048z"/>
	<path fill="#FFFFFF" d="M39.814,71.676l-0.529,1.832c-0.029,0.105-0.042,0.174-0.042,0.209c0,0.017,0.006,0.036,0.022,0.051
		c0.016,0.017,0.031,0.025,0.049,0.025c0.029,0,0.058-0.015,0.088-0.038c0.077-0.063,0.169-0.179,0.278-0.345l0.088,0.051
		c-0.26,0.452-0.535,0.679-0.827,0.679c-0.111,0-0.2-0.032-0.268-0.093c-0.065-0.064-0.098-0.145-0.098-0.24
		c0-0.063,0.015-0.146,0.043-0.241l0.358-1.232c0.034-0.117,0.052-0.209,0.052-0.269c0-0.038-0.018-0.072-0.051-0.101
		c-0.031-0.028-0.076-0.044-0.133-0.044c-0.028,0-0.057,0.001-0.093,0.004l0.033-0.104l0.875-0.143h0.153V71.676z M39.655,70.488
		c0.104,0,0.194,0.038,0.269,0.113c0.073,0.074,0.109,0.162,0.109,0.268s-0.036,0.194-0.112,0.269
		c-0.071,0.075-0.162,0.109-0.266,0.109s-0.194-0.034-0.267-0.109c-0.074-0.074-0.111-0.163-0.111-0.269s0.037-0.193,0.11-0.268
		C39.46,70.528,39.549,70.488,39.655,70.488z"/>
	<path fill="#FFFFFF" d="M41.67,71.676c0.136,0,0.264,0.03,0.385,0.092c0.117,0.064,0.209,0.152,0.27,0.265s0.094,0.235,0.094,0.37
		c0,0.276-0.08,0.558-0.236,0.835c-0.154,0.277-0.358,0.499-0.61,0.659c-0.255,0.158-0.514,0.238-0.77,0.238
		c-0.233,0-0.414-0.067-0.544-0.206c-0.125-0.141-0.19-0.311-0.19-0.513c0-0.239,0.046-0.461,0.144-0.67
		c0.098-0.212,0.215-0.394,0.362-0.549c0.147-0.153,0.314-0.28,0.508-0.377C41.267,71.724,41.466,71.676,41.67,71.676z
		 M41.564,71.813c-0.093,0-0.168,0.027-0.228,0.079c-0.121,0.109-0.256,0.364-0.406,0.761c-0.153,0.4-0.229,0.758-0.229,1.075
		c0,0.079,0.025,0.146,0.075,0.197c0.046,0.051,0.103,0.077,0.169,0.077c0.065,0,0.125-0.021,0.178-0.061
		c0.076-0.063,0.167-0.201,0.277-0.417c0.108-0.216,0.201-0.455,0.272-0.713c0.072-0.262,0.104-0.498,0.104-0.715
		c0-0.09-0.021-0.158-0.065-0.207C41.67,71.838,41.622,71.813,41.564,71.813z"/>
	<path fill="#FFFFFF" d="M43.984,71.676l-0.32,1.106c0.214-0.322,0.375-0.544,0.481-0.663c0.156-0.17,0.292-0.287,0.405-0.352
		c0.112-0.06,0.218-0.091,0.318-0.091c0.089,0,0.166,0.031,0.229,0.102c0.065,0.065,0.096,0.15,0.096,0.257
		c0,0.097-0.021,0.214-0.062,0.35L44.8,73.486c-0.026,0.095-0.039,0.158-0.039,0.186c0,0.02,0.007,0.033,0.02,0.051
		c0.015,0.011,0.025,0.019,0.039,0.019c0.019,0,0.034-0.008,0.056-0.019c0.061-0.053,0.119-0.122,0.179-0.215
		c0.019-0.024,0.044-0.06,0.078-0.105l0.097,0.058c-0.251,0.424-0.52,0.637-0.796,0.637c-0.106,0-0.191-0.028-0.251-0.082
		c-0.059-0.057-0.09-0.123-0.09-0.208c0-0.07,0.019-0.178,0.061-0.323l0.323-1.099c0.023-0.071,0.034-0.126,0.034-0.159
		c0-0.022-0.011-0.036-0.025-0.05c-0.015-0.017-0.031-0.023-0.055-0.023c-0.064,0-0.144,0.043-0.236,0.135
		c-0.238,0.226-0.466,0.563-0.688,1.012l-0.213,0.764h-0.656l0.48-1.654c0.048-0.161,0.071-0.278,0.071-0.349
		c0-0.027-0.007-0.051-0.021-0.072c-0.015-0.019-0.038-0.036-0.069-0.044c-0.028-0.013-0.09-0.019-0.175-0.019l0.029-0.099
		l0.871-0.151L43.984,71.676L43.984,71.676z"/>
	<path fill="#FFFFFF" d="M49.907,70.488l-0.288,1.188h-0.088c-0.02-0.186-0.052-0.333-0.099-0.445
		c-0.073-0.161-0.169-0.286-0.288-0.375c-0.118-0.087-0.247-0.133-0.387-0.133c-0.136,0-0.253,0.053-0.353,0.154
		c-0.099,0.103-0.153,0.216-0.153,0.346c0,0.128,0.036,0.252,0.105,0.374c0.07,0.124,0.233,0.309,0.494,0.558
		c0.208,0.197,0.346,0.367,0.418,0.511c0.071,0.144,0.104,0.297,0.104,0.464c0,0.186-0.047,0.357-0.147,0.517
		s-0.244,0.281-0.433,0.369c-0.191,0.085-0.407,0.131-0.647,0.131c-0.148,0-0.332-0.024-0.559-0.065
		c-0.223-0.046-0.372-0.068-0.445-0.068c-0.06,0-0.111,0.011-0.159,0.028c-0.045,0.019-0.103,0.053-0.171,0.105h-0.101l0.313-1.334
		h0.097c0.023,0.233,0.07,0.432,0.143,0.599c0.074,0.161,0.176,0.291,0.31,0.383s0.287,0.138,0.46,0.138
		c0.167,0,0.311-0.056,0.426-0.169c0.11-0.111,0.169-0.243,0.169-0.396c0-0.129-0.031-0.252-0.095-0.372
		c-0.066-0.117-0.213-0.289-0.44-0.519c-0.229-0.227-0.389-0.43-0.476-0.607c-0.065-0.133-0.095-0.273-0.095-0.424
		c0-0.258,0.102-0.483,0.306-0.672c0.205-0.189,0.473-0.284,0.801-0.284c0.151,0,0.348,0.036,0.591,0.101
		c0.143,0.041,0.243,0.06,0.301,0.06c0.05,0,0.095-0.011,0.135-0.031c0.037-0.021,0.088-0.063,0.141-0.129H49.907L49.907,70.488z"/>
	<path fill="#FFFFFF" d="M50.082,71.82l0.854-0.145h0.154l-0.117,0.421c0.182-0.166,0.33-0.276,0.446-0.334
		c0.114-0.061,0.228-0.088,0.341-0.088c0.161,0,0.285,0.062,0.374,0.188c0.087,0.124,0.133,0.276,0.133,0.457
		c0,0.494-0.171,0.93-0.516,1.313c-0.304,0.336-0.632,0.505-0.99,0.505c-0.063,0-0.118-0.006-0.16-0.018
		c-0.044-0.013-0.108-0.037-0.188-0.079l-0.135,0.462c-0.049,0.169-0.071,0.296-0.071,0.385c0,0.053,0.021,0.098,0.057,0.13
		c0.038,0.031,0.125,0.059,0.267,0.082l-0.024,0.095h-1.387l0.026-0.095c0.111-0.005,0.202-0.037,0.275-0.106
		c0.072-0.067,0.143-0.212,0.203-0.432l0.632-2.168c0.046-0.161,0.068-0.275,0.068-0.343c0-0.029-0.007-0.053-0.021-0.073
		c-0.015-0.021-0.033-0.033-0.063-0.042c-0.027-0.01-0.089-0.015-0.186-0.015L50.082,71.82z M50.483,73.8
		c0.052,0.084,0.098,0.142,0.14,0.168c0.042,0.028,0.093,0.042,0.146,0.042c0.055,0,0.108-0.015,0.161-0.045
		c0.052-0.029,0.116-0.092,0.193-0.181c0.078-0.093,0.153-0.208,0.222-0.35c0.072-0.142,0.131-0.306,0.172-0.485
		c0.043-0.182,0.065-0.355,0.065-0.519c0-0.136-0.024-0.229-0.07-0.289c-0.049-0.062-0.104-0.092-0.173-0.092
		c-0.06,0-0.117,0.017-0.169,0.047c-0.077,0.045-0.167,0.127-0.274,0.249L50.483,73.8z"/>
	<path fill="#FFFFFF" d="M53.227,73.099c-0.017,0.112-0.024,0.204-0.024,0.276c0,0.129,0.038,0.231,0.112,0.309
		c0.076,0.078,0.175,0.116,0.301,0.116c0.121,0,0.241-0.031,0.363-0.09c0.119-0.058,0.262-0.16,0.418-0.306l0.079,0.071
		c-0.198,0.236-0.39,0.405-0.577,0.509c-0.188,0.104-0.396,0.152-0.62,0.152c-0.287,0-0.486-0.068-0.596-0.206
		c-0.111-0.138-0.165-0.297-0.165-0.477c0-0.279,0.081-0.563,0.247-0.845c0.164-0.282,0.387-0.508,0.67-0.679
		c0.281-0.168,0.565-0.255,0.851-0.255c0.145,0,0.255,0.032,0.328,0.103c0.074,0.068,0.11,0.156,0.11,0.261
		c0,0.126-0.034,0.248-0.108,0.366c-0.097,0.162-0.224,0.291-0.375,0.391c-0.152,0.098-0.32,0.174-0.509,0.226
		C53.606,73.055,53.439,73.081,53.227,73.099z M53.252,72.964c0.152-0.021,0.269-0.052,0.351-0.094
		c0.081-0.038,0.165-0.097,0.244-0.183c0.081-0.087,0.149-0.193,0.21-0.323c0.058-0.131,0.086-0.252,0.086-0.364
		c0-0.049-0.012-0.087-0.039-0.115c-0.026-0.025-0.06-0.039-0.103-0.039c-0.081,0-0.175,0.058-0.277,0.173
		C53.533,72.228,53.377,72.542,53.252,72.964z"/>
	<path fill="#FFFFFF" d="M56.728,73.444l0.077,0.069c-0.166,0.198-0.331,0.346-0.492,0.438c-0.214,0.124-0.437,0.186-0.668,0.186
		c-0.153,0-0.291-0.031-0.411-0.097c-0.117-0.066-0.208-0.16-0.263-0.278c-0.059-0.12-0.087-0.242-0.087-0.368
		c0-0.282,0.078-0.56,0.229-0.829c0.152-0.273,0.355-0.49,0.604-0.647c0.252-0.157,0.498-0.239,0.741-0.239
		c0.195,0,0.341,0.043,0.439,0.13c0.097,0.088,0.148,0.193,0.148,0.318c0,0.116-0.037,0.215-0.113,0.297
		c-0.073,0.079-0.156,0.118-0.246,0.118c-0.08,0-0.146-0.025-0.197-0.076c-0.053-0.051-0.078-0.112-0.078-0.183
		c0-0.093,0.045-0.173,0.138-0.243c0.065-0.047,0.097-0.09,0.097-0.126c0-0.03-0.015-0.055-0.039-0.075
		c-0.033-0.027-0.079-0.04-0.136-0.04c-0.146,0-0.279,0.059-0.405,0.175c-0.17,0.153-0.297,0.349-0.388,0.587
		c-0.092,0.236-0.136,0.462-0.136,0.676c0,0.168,0.045,0.304,0.139,0.401c0.092,0.1,0.199,0.153,0.323,0.153
		c0.11,0,0.228-0.029,0.358-0.087C56.49,73.646,56.612,73.56,56.728,73.444z"/>
	<path fill="#FFFFFF" d="M58.435,71.676l-0.529,1.832c-0.029,0.105-0.044,0.174-0.044,0.209c0,0.017,0.01,0.036,0.025,0.051
		c0.015,0.017,0.03,0.025,0.046,0.025c0.031,0,0.06-0.015,0.091-0.038c0.078-0.063,0.17-0.179,0.276-0.345l0.088,0.051
		c-0.259,0.452-0.534,0.679-0.826,0.679c-0.112,0-0.2-0.032-0.267-0.093c-0.065-0.064-0.099-0.145-0.099-0.24
		c0-0.063,0.016-0.146,0.042-0.241l0.36-1.232c0.034-0.117,0.051-0.209,0.051-0.269c0-0.038-0.017-0.072-0.049-0.101
		c-0.031-0.028-0.077-0.044-0.135-0.044c-0.024,0-0.057,0.001-0.091,0.004l0.031-0.104l0.875-0.143h0.153V71.676z M58.274,70.488
		c0.105,0,0.197,0.038,0.27,0.113c0.074,0.074,0.111,0.162,0.111,0.268s-0.037,0.194-0.111,0.269
		c-0.075,0.075-0.164,0.109-0.27,0.109c-0.103,0-0.192-0.034-0.265-0.109c-0.077-0.074-0.112-0.163-0.112-0.269
		s0.035-0.193,0.11-0.268C58.08,70.528,58.172,70.488,58.274,70.488z"/>
	<path fill="#FFFFFF" d="M61.083,71.712l-0.499,1.714l-0.053,0.208c-0.006,0.027-0.009,0.046-0.009,0.058
		c0,0.021,0.007,0.039,0.025,0.055c0.015,0.016,0.029,0.022,0.043,0.022c0.033,0,0.084-0.027,0.151-0.083
		c0.026-0.021,0.087-0.1,0.184-0.236l0.091,0.046c-0.121,0.224-0.251,0.386-0.393,0.486c-0.137,0.104-0.284,0.153-0.446,0.153
		c-0.097,0-0.172-0.023-0.223-0.075c-0.052-0.05-0.078-0.115-0.078-0.191c0-0.069,0.028-0.193,0.083-0.376l0.062-0.209
		c-0.198,0.342-0.39,0.585-0.574,0.728c-0.108,0.082-0.221,0.122-0.34,0.122c-0.158,0-0.271-0.063-0.343-0.194
		c-0.07-0.128-0.104-0.274-0.104-0.438c0-0.242,0.074-0.52,0.22-0.834c0.146-0.313,0.341-0.564,0.582-0.756
		c0.199-0.158,0.384-0.238,0.555-0.238c0.098,0,0.175,0.03,0.234,0.086c0.058,0.055,0.099,0.156,0.129,0.307l0.093-0.319
		L61.083,71.712z M60.258,72.201c0-0.142-0.021-0.239-0.065-0.302c-0.03-0.041-0.071-0.065-0.126-0.065s-0.108,0.028-0.166,0.079
		c-0.112,0.105-0.236,0.321-0.372,0.648c-0.133,0.324-0.198,0.607-0.198,0.843c0,0.092,0.014,0.157,0.043,0.196
		c0.028,0.043,0.064,0.061,0.101,0.061c0.076,0,0.155-0.043,0.232-0.133c0.114-0.126,0.216-0.281,0.31-0.466
		C60.178,72.74,60.258,72.454,60.258,72.201z"/>
	<path fill="#FFFFFF" d="M62.864,70.488l-0.854,2.902c-0.05,0.172-0.076,0.279-0.076,0.321c0,0.024,0.009,0.043,0.024,0.058
		c0.014,0.019,0.03,0.023,0.046,0.023c0.031,0,0.06-0.012,0.089-0.033c0.083-0.068,0.174-0.181,0.275-0.342l0.101,0.049
		c-0.165,0.261-0.326,0.446-0.482,0.559c-0.107,0.074-0.225,0.111-0.347,0.111c-0.11,0-0.202-0.03-0.271-0.091
		c-0.067-0.062-0.1-0.136-0.1-0.22c0-0.064,0.021-0.165,0.061-0.308l0.696-2.375c0.039-0.131,0.058-0.217,0.058-0.261
		c0-0.04-0.019-0.075-0.054-0.099c-0.048-0.033-0.121-0.049-0.219-0.043l0.03-0.099l0.868-0.15h0.153V70.488z"/>
	<path fill="#FFFFFF" d="M64.005,71.676l-0.529,1.832c-0.029,0.105-0.041,0.174-0.041,0.209c0,0.017,0.005,0.036,0.022,0.051
		c0.016,0.017,0.031,0.025,0.048,0.025c0.032,0,0.058-0.015,0.091-0.038c0.075-0.063,0.168-0.179,0.275-0.345l0.088,0.051
		c-0.259,0.452-0.534,0.679-0.827,0.679c-0.111,0-0.199-0.032-0.265-0.093c-0.067-0.064-0.102-0.145-0.102-0.24
		c0-0.063,0.015-0.146,0.044-0.241l0.36-1.232c0.032-0.117,0.05-0.209,0.05-0.269c0-0.038-0.018-0.072-0.05-0.101
		c-0.029-0.028-0.078-0.044-0.133-0.044c-0.026,0-0.057,0.001-0.092,0.004l0.031-0.104l0.875-0.143h0.153V71.676z M63.846,70.488
		c0.104,0,0.194,0.038,0.27,0.113c0.073,0.074,0.109,0.162,0.109,0.268s-0.036,0.194-0.113,0.269
		c-0.071,0.075-0.161,0.109-0.266,0.109c-0.103,0-0.192-0.034-0.267-0.109c-0.074-0.074-0.111-0.163-0.111-0.269
		s0.037-0.193,0.109-0.268C63.65,70.528,63.74,70.488,63.846,70.488z"/>
	<path fill="#FFFFFF" d="M66.091,71.676l-0.112,0.797h-0.098c-0.014-0.209-0.076-0.368-0.188-0.487
		c-0.113-0.119-0.232-0.178-0.362-0.178c-0.079,0-0.146,0.024-0.197,0.069c-0.051,0.047-0.076,0.103-0.076,0.168
		c0,0.056,0.011,0.106,0.03,0.152c0.024,0.05,0.074,0.116,0.153,0.195c0.271,0.295,0.435,0.496,0.495,0.604
		c0.056,0.113,0.089,0.231,0.089,0.354c0,0.137-0.037,0.267-0.104,0.387c-0.071,0.121-0.173,0.216-0.311,0.291
		c-0.135,0.072-0.277,0.107-0.426,0.107c-0.097,0-0.22-0.018-0.367-0.059c-0.098-0.027-0.17-0.039-0.216-0.039
		c-0.044,0-0.079,0.005-0.101,0.019c-0.023,0.014-0.051,0.041-0.081,0.081h-0.095l0.127-0.857h0.083
		c0.06,0.207,0.117,0.356,0.169,0.445c0.053,0.088,0.121,0.156,0.212,0.212c0.087,0.052,0.172,0.08,0.252,0.08
		c0.092,0,0.171-0.032,0.234-0.09c0.06-0.061,0.091-0.131,0.091-0.215c0-0.081-0.021-0.159-0.061-0.234
		c-0.039-0.074-0.134-0.191-0.279-0.352c-0.2-0.217-0.334-0.386-0.396-0.507c-0.045-0.086-0.068-0.183-0.068-0.292
		c0-0.186,0.068-0.341,0.203-0.464c0.135-0.125,0.323-0.187,0.568-0.187c0.108,0,0.238,0.021,0.392,0.058
		c0.078,0.019,0.14,0.028,0.188,0.028c0.064,0,0.119-0.028,0.161-0.086L66.091,71.676L66.091,71.676z"/>
	<path fill="#FFFFFF" d="M67.692,71.048l-0.205,0.701h0.335l-0.089,0.296h-0.335l-0.429,1.497c-0.03,0.09-0.041,0.161-0.041,0.211
		c0,0.022,0.008,0.04,0.022,0.058c0.017,0.016,0.032,0.024,0.052,0.024c0.03,0,0.058-0.013,0.09-0.035
		c0.08-0.06,0.172-0.164,0.275-0.316l0.091,0.059c-0.118,0.207-0.249,0.357-0.392,0.454c-0.145,0.095-0.28,0.144-0.42,0.144
		c-0.116,0-0.207-0.028-0.271-0.088s-0.098-0.136-0.098-0.226c0-0.099,0.024-0.228,0.067-0.384l0.407-1.395h-0.35l0.052-0.191
		c0.217-0.083,0.403-0.175,0.555-0.282c0.152-0.108,0.335-0.284,0.547-0.522h0.136V71.048z"/>
	<path fill="#FFFFFF" d="M69.608,71.676l-0.11,0.797h-0.095c-0.016-0.209-0.077-0.368-0.19-0.487
		c-0.112-0.119-0.234-0.178-0.361-0.178c-0.081,0-0.146,0.024-0.197,0.069c-0.052,0.047-0.077,0.103-0.077,0.168
		c0,0.056,0.012,0.106,0.034,0.152c0.021,0.05,0.071,0.116,0.149,0.195c0.271,0.295,0.436,0.496,0.494,0.604
		c0.059,0.113,0.088,0.231,0.088,0.354c0,0.137-0.035,0.267-0.104,0.387c-0.066,0.121-0.169,0.216-0.308,0.291
		c-0.136,0.072-0.277,0.107-0.428,0.107c-0.097,0-0.221-0.018-0.366-0.059c-0.097-0.027-0.169-0.039-0.215-0.039
		c-0.043,0-0.078,0.005-0.101,0.019c-0.025,0.014-0.051,0.041-0.08,0.081h-0.097l0.126-0.857h0.084
		c0.062,0.207,0.115,0.356,0.169,0.445c0.054,0.088,0.121,0.156,0.211,0.212c0.089,0.052,0.172,0.08,0.252,0.08
		c0.095,0,0.173-0.032,0.235-0.09c0.06-0.061,0.091-0.131,0.091-0.215c0-0.081-0.02-0.159-0.061-0.234
		c-0.04-0.074-0.134-0.191-0.278-0.352c-0.2-0.217-0.334-0.386-0.396-0.507c-0.045-0.086-0.069-0.183-0.069-0.292
		c0-0.186,0.069-0.341,0.203-0.464c0.136-0.125,0.325-0.187,0.568-0.187c0.107,0,0.238,0.021,0.395,0.058
		c0.077,0.019,0.139,0.028,0.186,0.028c0.065,0,0.119-0.028,0.16-0.086L69.608,71.676L69.608,71.676z"/>
</g>
</svg>
