<?xml version="1.0" encoding="utf-8"?>
<!-- Generator: Adobe Illustrator 16.0.0, SVG Export Plug-In . SVG Version: 6.00 Build 0)  -->
<!DOCTYPE svg PUBLIC "-//W3C//DTD SVG 1.1//EN" "http://www.w3.org/Graphics/SVG/1.1/DTD/svg11.dtd">
<svg version="1.1" id="Layer_1" xmlns="http://www.w3.org/2000/svg" xmlns:xlink="http://www.w3.org/1999/xlink" x="0px" y="0px"
	 width="64px" height="64px" viewBox="0 0 64 64" enable-background="new 0 0 64 64" xml:space="preserve">
<polygon fill-rule="evenodd" clip-rule="evenodd" fill="#6D6D6D" points="1,48.774 32.153,23.619 49.132,48.924 63.389,48.911 
	32.147,2 "/>
<path fill-rule="evenodd" clip-rule="evenodd" fill="#B62225" d="M32.153,23.619C21.772,32.034,11.415,40.43,1.058,48.825
	C1.039,48.809,1.019,48.791,1,48.774C11.372,33.199,21.743,17.623,32.147,2c10.426,15.656,20.821,31.267,31.241,46.911
	c-0.115,0.012-0.189,0.022-0.261,0.022c-4.619,0-9.237-0.001-13.855,0.007c-0.229,0-0.325-0.116-0.431-0.273
	c-1.936-2.909-3.876-5.815-5.812-8.724c-3.079-4.626-6.159-9.253-9.237-13.88c-0.48-0.723-0.961-1.449-1.441-2.172
	C32.295,23.806,32.232,23.726,32.153,23.619z"/>
<path fill-rule="evenodd" clip-rule="evenodd" fill="#B62225" d="M31.507,28.087c4.631,6.951,9.242,13.87,13.883,20.837
	c-13.215,0-26.361,0-39.593,0C14.391,41.957,22.93,35.038,31.507,28.087z"/>
<g>
	<path fill="#231F20" d="M10.318,57.031v0.19H6.67v-0.19h0.231c0.203,0,0.365-0.036,0.489-0.108c0.089-0.048,0.158-0.13,0.206-0.246
		c0.038-0.083,0.057-0.299,0.057-0.648v-4.59c0-0.356-0.019-0.58-0.057-0.669c-0.038-0.089-0.114-0.167-0.229-0.234
		c-0.115-0.066-0.27-0.101-0.466-0.101H6.67v-0.189h3.648v0.189h-0.231c-0.203,0-0.365,0.036-0.489,0.108
		c-0.089,0.048-0.16,0.131-0.211,0.247c-0.038,0.082-0.057,0.299-0.057,0.648v4.59c0,0.356,0.02,0.579,0.059,0.669
		c0.04,0.089,0.117,0.167,0.231,0.233c0.115,0.067,0.271,0.101,0.466,0.101H10.318z"/>
	<path fill="#231F20" d="M15.773,50.085l0.057,2.326h-0.211c-0.1-0.583-0.344-1.053-0.733-1.407
		c-0.389-0.355-0.81-0.533-1.263-0.533c-0.35,0-0.627,0.094-0.831,0.281c-0.204,0.187-0.306,0.401-0.306,0.646
		c0,0.154,0.036,0.291,0.108,0.411c0.1,0.161,0.259,0.321,0.479,0.479c0.161,0.113,0.533,0.314,1.117,0.603
		c0.816,0.401,1.367,0.78,1.651,1.137c0.281,0.356,0.422,0.765,0.422,1.225c0,0.583-0.227,1.085-0.682,1.505
		s-1.032,0.631-1.731,0.631c-0.22,0-0.427-0.022-0.623-0.067s-0.441-0.129-0.736-0.252c-0.165-0.068-0.3-0.103-0.406-0.103
		c-0.089,0-0.184,0.034-0.283,0.103s-0.18,0.173-0.242,0.313h-0.19v-2.634h0.19c0.151,0.74,0.441,1.306,0.872,1.695
		c0.431,0.389,0.895,0.584,1.392,0.584c0.384,0,0.69-0.104,0.918-0.314c0.228-0.209,0.342-0.452,0.342-0.73
		c0-0.164-0.043-0.324-0.131-0.479c-0.087-0.154-0.22-0.301-0.398-0.439c-0.179-0.14-0.494-0.32-0.947-0.543
		c-0.635-0.313-1.091-0.578-1.369-0.798s-0.492-0.465-0.641-0.735c-0.149-0.271-0.224-0.569-0.224-0.896
		c0-0.556,0.204-1.029,0.612-1.42c0.408-0.392,0.923-0.587,1.544-0.587c0.226,0,0.446,0.027,0.659,0.083
		c0.161,0.041,0.357,0.117,0.589,0.229s0.394,0.167,0.486,0.167c0.089,0,0.16-0.027,0.211-0.082s0.1-0.187,0.144-0.396H15.773z"/>
	<path fill="#231F20" d="M19.818,50.646v2.84h0.139c0.443,0,0.763-0.139,0.962-0.417c0.199-0.277,0.326-0.688,0.381-1.229h0.195
		v3.653H21.3c-0.042-0.398-0.128-0.724-0.26-0.978c-0.132-0.254-0.286-0.425-0.46-0.513c-0.175-0.087-0.429-0.131-0.762-0.131v1.966
		c0,0.384,0.016,0.619,0.049,0.705c0.033,0.085,0.093,0.155,0.183,0.211c0.089,0.055,0.233,0.082,0.432,0.082h0.417
		c0.651,0,1.174-0.151,1.567-0.453c0.393-0.302,0.675-0.762,0.846-1.379h0.19l-0.314,2.218h-6.03v-0.19h0.231
		c0.203,0,0.365-0.036,0.489-0.108c0.089-0.048,0.158-0.13,0.206-0.246c0.038-0.083,0.057-0.299,0.057-0.648v-4.59
		c0-0.315-0.009-0.51-0.026-0.581c-0.034-0.12-0.098-0.213-0.19-0.278c-0.13-0.096-0.309-0.145-0.535-0.145h-0.231v-0.189h5.84
		v2.063h-0.195c-0.1-0.504-0.239-0.866-0.419-1.085c-0.18-0.22-0.435-0.381-0.764-0.484c-0.192-0.062-0.552-0.092-1.081-0.092
		H19.818z"/>
	<path fill="#231F20" d="M31.272,50.085v2.419h-0.201c-0.151-0.632-0.432-1.115-0.844-1.451s-0.878-0.505-1.4-0.505
		c-0.436,0-0.835,0.126-1.199,0.376c-0.363,0.25-0.629,0.578-0.797,0.982c-0.216,0.519-0.324,1.095-0.324,1.729
		c0,0.624,0.079,1.192,0.237,1.705s0.405,0.9,0.741,1.163c0.336,0.263,0.772,0.394,1.307,0.394c0.439,0,0.841-0.096,1.207-0.288
		s0.75-0.523,1.155-0.993v0.603c-0.391,0.408-0.798,0.704-1.222,0.887c-0.424,0.184-0.918,0.275-1.484,0.275
		c-0.745,0-1.406-0.148-1.984-0.447c-0.578-0.299-1.023-0.728-1.337-1.286c-0.314-0.56-0.471-1.154-0.471-1.786
		c0-0.665,0.174-1.296,0.522-1.893c0.348-0.598,0.818-1.061,1.41-1.39c0.592-0.329,1.22-0.494,1.886-0.494
		c0.491,0,1.009,0.106,1.554,0.319c0.315,0.123,0.516,0.186,0.602,0.186c0.109,0,0.205-0.041,0.285-0.121
		c0.081-0.081,0.133-0.209,0.157-0.384H31.272z"/>
	<path fill="#231F20" d="M41.663,54.772L41.4,57.222h-6.195v-0.19h0.231c0.203,0,0.365-0.036,0.489-0.108
		c0.089-0.048,0.157-0.13,0.206-0.246c0.037-0.083,0.057-0.299,0.057-0.648v-4.59c0-0.356-0.02-0.58-0.057-0.669
		c-0.038-0.089-0.114-0.167-0.229-0.234c-0.115-0.066-0.27-0.101-0.466-0.101h-0.231v-0.189h3.721v0.189h-0.304
		c-0.203,0-0.365,0.036-0.489,0.108c-0.089,0.048-0.159,0.131-0.211,0.247c-0.038,0.082-0.057,0.299-0.057,0.648v4.445
		c0,0.356,0.021,0.584,0.062,0.682c0.042,0.098,0.122,0.171,0.242,0.219c0.086,0.031,0.293,0.047,0.623,0.047h0.581
		c0.37,0,0.679-0.065,0.926-0.196c0.247-0.13,0.461-0.336,0.641-0.617c0.181-0.281,0.351-0.696,0.513-1.245H41.663z"/>
	<path fill="#231F20" d="M47.982,50.245v1.888h-0.185c-0.11-0.436-0.232-0.748-0.366-0.938c-0.133-0.19-0.316-0.343-0.55-0.456
		c-0.131-0.062-0.358-0.092-0.685-0.092h-0.52v5.382c0,0.356,0.02,0.579,0.059,0.669c0.04,0.089,0.117,0.167,0.232,0.233
		c0.114,0.067,0.271,0.101,0.471,0.101h0.231v0.19h-3.653v-0.19h0.231c0.202,0,0.365-0.036,0.489-0.108
		c0.089-0.048,0.159-0.13,0.211-0.246c0.037-0.083,0.056-0.299,0.056-0.648v-5.382h-0.504c-0.47,0-0.812,0.099-1.023,0.298
		c-0.299,0.278-0.487,0.674-0.566,1.188h-0.195v-1.888H47.982z"/>
	<path fill="#231F20" d="M48.766,57.222v-0.19h0.231c0.203,0,0.358-0.031,0.466-0.095c0.108-0.063,0.188-0.15,0.239-0.26
		c0.031-0.072,0.047-0.289,0.047-0.648v-4.59c0-0.356-0.02-0.58-0.057-0.669c-0.038-0.089-0.114-0.167-0.229-0.234
		c-0.115-0.066-0.27-0.101-0.466-0.101h-0.231v-0.189h3.123c0.834,0,1.505,0.112,2.012,0.339c0.621,0.278,1.092,0.698,1.413,1.261
		c0.32,0.563,0.48,1.199,0.48,1.909c0,0.49-0.078,0.942-0.236,1.355s-0.362,0.755-0.612,1.024c-0.25,0.269-0.539,0.485-0.867,0.648
		c-0.327,0.162-0.728,0.288-1.201,0.378c-0.209,0.041-0.538,0.062-0.988,0.062H48.766z M51.426,50.641v5.444
		c0,0.288,0.014,0.465,0.041,0.529c0.027,0.065,0.074,0.115,0.14,0.149c0.092,0.052,0.226,0.077,0.401,0.077
		c0.572,0,1.01-0.195,1.312-0.587c0.412-0.527,0.617-1.348,0.617-2.459c0-0.896-0.141-1.61-0.422-2.146
		c-0.223-0.419-0.509-0.703-0.859-0.854C52.409,50.688,51.999,50.638,51.426,50.641z"/>
</g>
<g>
	<path fill="#231F20" d="M5.815,58.997L5.613,59.82H5.554c-0.013-0.129-0.037-0.232-0.07-0.31c-0.05-0.112-0.117-0.199-0.2-0.26
		s-0.173-0.092-0.27-0.092c-0.093,0-0.174,0.036-0.244,0.107c-0.07,0.07-0.105,0.15-0.105,0.24c0,0.089,0.024,0.175,0.073,0.261
		c0.048,0.085,0.163,0.214,0.343,0.386c0.144,0.137,0.241,0.255,0.291,0.354c0.05,0.099,0.075,0.206,0.075,0.322
		c0,0.13-0.035,0.25-0.104,0.359c-0.069,0.11-0.17,0.195-0.302,0.255c-0.132,0.061-0.281,0.091-0.448,0.091
		c-0.103,0-0.232-0.016-0.388-0.046s-0.259-0.046-0.311-0.046c-0.041,0-0.077,0.007-0.109,0.02c-0.032,0.012-0.072,0.036-0.12,0.072
		h-0.07l0.217-0.926H3.88c0.016,0.162,0.048,0.301,0.099,0.415c0.05,0.113,0.122,0.202,0.214,0.267
		c0.093,0.063,0.2,0.096,0.319,0.096c0.118,0,0.217-0.039,0.296-0.117c0.079-0.078,0.119-0.17,0.119-0.275
		c0-0.089-0.022-0.175-0.067-0.258c-0.045-0.082-0.147-0.202-0.306-0.359s-0.27-0.299-0.33-0.423
		c-0.044-0.092-0.066-0.189-0.066-0.293c0-0.181,0.071-0.336,0.213-0.468c0.142-0.131,0.328-0.196,0.557-0.196
		c0.104,0,0.241,0.023,0.41,0.069c0.099,0.027,0.169,0.041,0.209,0.041c0.035,0,0.065-0.007,0.093-0.022
		c0.028-0.015,0.06-0.044,0.097-0.088H5.815z"/>
	<path fill="#231F20" d="M6.688,59.82l-0.347,1.217c-0.017,0.057-0.025,0.095-0.025,0.116c0,0.011,0.004,0.02,0.012,0.025
		c0.01,0.01,0.021,0.015,0.034,0.015c0.055,0,0.128-0.049,0.22-0.147c0.131-0.142,0.269-0.346,0.414-0.611l0.163-0.548l0.453-0.017
		l-0.344,1.182c-0.029,0.101-0.043,0.157-0.043,0.172c0,0.01,0.004,0.02,0.014,0.029c0.009,0.011,0.018,0.016,0.027,0.016
		c0.017,0,0.033-0.008,0.048-0.021c0.043-0.035,0.1-0.104,0.17-0.21l0.061,0.043c-0.166,0.3-0.348,0.449-0.548,0.449
		c-0.074,0-0.132-0.019-0.174-0.056c-0.042-0.038-0.063-0.087-0.063-0.148c0-0.064,0.015-0.146,0.045-0.245l0.087-0.303
		c-0.155,0.226-0.268,0.378-0.338,0.457c-0.107,0.118-0.198,0.197-0.271,0.236s-0.144,0.059-0.21,0.059
		c-0.063,0-0.118-0.023-0.164-0.069c-0.046-0.047-0.069-0.105-0.069-0.178c0-0.061,0.015-0.143,0.044-0.245l0.203-0.716
		c0.033-0.117,0.05-0.195,0.05-0.236c0-0.018-0.005-0.033-0.014-0.047c-0.01-0.014-0.025-0.024-0.047-0.032
		c-0.022-0.008-0.063-0.012-0.123-0.012l0.018-0.068l0.61-0.105H6.688z"/>
	<path fill="#231F20" d="M8.622,59.82l-0.271,1.006c0.222-0.49,0.389-0.792,0.501-0.905c0.065-0.067,0.135-0.101,0.208-0.101
		c0.05,0,0.091,0.019,0.122,0.055c0.031,0.036,0.047,0.088,0.047,0.154c0,0.116-0.028,0.213-0.084,0.292
		c-0.036,0.05-0.076,0.075-0.12,0.075c-0.048,0-0.083-0.022-0.107-0.066s-0.041-0.07-0.05-0.077c-0.009-0.008-0.02-0.012-0.03-0.012
		c-0.012,0-0.024,0.003-0.038,0.011c-0.026,0.014-0.061,0.049-0.103,0.104s-0.095,0.148-0.157,0.278s-0.11,0.24-0.145,0.33
		s-0.083,0.262-0.145,0.515H7.816l0.295-1.187c0.021-0.089,0.032-0.147,0.032-0.176c0-0.032-0.005-0.058-0.017-0.075
		C8.115,60.024,8.1,60.011,8.08,60.003c-0.02-0.009-0.061-0.013-0.123-0.013l0.016-0.052l0.541-0.118H8.622z"/>
	<path fill="#231F20" d="M9.685,61.529H9.621c0.003-0.098,0.005-0.172,0.005-0.222c0-0.136-0.011-0.333-0.031-0.59
		c-0.021-0.257-0.044-0.429-0.071-0.515c-0.021-0.063-0.047-0.109-0.081-0.138c-0.023-0.02-0.052-0.028-0.088-0.028
		c-0.02,0-0.044,0.002-0.073,0.007v-0.064l0.596-0.159c0.119,0.325,0.177,0.743,0.173,1.251c0.176-0.167,0.296-0.303,0.363-0.406
		c0.066-0.104,0.099-0.19,0.099-0.26c0-0.055-0.021-0.11-0.062-0.167c-0.042-0.057-0.067-0.097-0.077-0.121
		c-0.01-0.023-0.015-0.05-0.015-0.079c0-0.062,0.02-0.113,0.061-0.155c0.041-0.042,0.092-0.063,0.154-0.063
		c0.065,0,0.116,0.021,0.152,0.063c0.05,0.059,0.075,0.128,0.075,0.208c0,0.082-0.015,0.163-0.044,0.242
		c-0.029,0.079-0.079,0.173-0.15,0.281c-0.071,0.107-0.15,0.206-0.237,0.294C10.21,61.07,9.982,61.278,9.685,61.529z"/>
	<path fill="#231F20" d="M11.38,60.809c-0.011,0.077-0.016,0.141-0.016,0.191c0,0.089,0.026,0.161,0.078,0.215
		c0.052,0.054,0.121,0.08,0.208,0.08c0.083,0,0.167-0.021,0.251-0.061c0.084-0.041,0.182-0.111,0.292-0.213l0.054,0.048
		c-0.137,0.166-0.271,0.284-0.401,0.354c-0.13,0.07-0.274,0.105-0.432,0.105c-0.199,0-0.337-0.048-0.413-0.143
		c-0.077-0.096-0.115-0.206-0.115-0.331c0-0.196,0.057-0.392,0.171-0.588c0.114-0.195,0.269-0.353,0.465-0.471
		s0.394-0.177,0.592-0.177c0.1,0,0.176,0.023,0.227,0.071S12.42,60,12.42,60.072c0,0.088-0.025,0.172-0.075,0.255
		c-0.069,0.111-0.156,0.202-0.261,0.271c-0.105,0.069-0.223,0.121-0.353,0.157C11.644,60.778,11.527,60.796,11.38,60.809z
		 M11.396,60.715c0.105-0.016,0.187-0.036,0.244-0.063c0.058-0.026,0.115-0.069,0.17-0.129c0.055-0.059,0.104-0.134,0.144-0.224
		s0.061-0.175,0.061-0.253c0-0.033-0.009-0.06-0.027-0.079c-0.019-0.019-0.042-0.028-0.071-0.028c-0.057,0-0.122,0.04-0.193,0.12
		C11.592,60.204,11.483,60.423,11.396,60.715z"/>
	<path fill="#231F20" d="M12.527,59.981l0.551-0.161c0.044,0.055,0.075,0.106,0.093,0.155c0.032,0.085,0.055,0.202,0.068,0.352
		c0.025,0.293,0.042,0.606,0.052,0.939c0.127-0.168,0.274-0.391,0.438-0.668c0.05-0.083,0.075-0.162,0.075-0.236
		c0-0.046-0.029-0.091-0.087-0.132c-0.058-0.042-0.094-0.074-0.108-0.098c-0.014-0.023-0.021-0.054-0.021-0.091
		c0-0.06,0.021-0.111,0.065-0.155c0.043-0.045,0.097-0.066,0.159-0.066c0.065,0,0.123,0.025,0.171,0.075s0.072,0.109,0.072,0.177
		c0,0.08-0.022,0.173-0.067,0.278c-0.045,0.105-0.149,0.287-0.314,0.544c-0.211,0.328-0.418,0.611-0.621,0.852
		c-0.13,0.153-0.235,0.263-0.315,0.33s-0.163,0.121-0.249,0.16c-0.051,0.023-0.102,0.034-0.152,0.034
		c-0.068,0-0.126-0.023-0.174-0.071s-0.073-0.104-0.073-0.17c0-0.066,0.022-0.121,0.065-0.167c0.043-0.045,0.095-0.067,0.153-0.067
		c0.073,0,0.14,0.038,0.201,0.114c0.041,0.051,0.074,0.077,0.1,0.077c0.027,0,0.054-0.008,0.081-0.023
		c0.036-0.02,0.086-0.063,0.15-0.133c0.007-0.149,0.011-0.262,0.011-0.338c0-0.103-0.005-0.247-0.014-0.434l-0.03-0.682
		c-0.011-0.125-0.038-0.216-0.081-0.271c-0.034-0.04-0.077-0.061-0.131-0.061c-0.021,0-0.043,0.002-0.068,0.005V59.981z"/>
	<path fill="#231F20" d="M16.733,59.846l-0.347,1.189l-0.036,0.146c-0.004,0.018-0.005,0.031-0.005,0.039
		c0,0.015,0.005,0.027,0.015,0.038s0.021,0.016,0.031,0.016c0.025,0,0.06-0.019,0.104-0.057c0.018-0.016,0.061-0.071,0.129-0.165
		l0.063,0.032c-0.085,0.155-0.175,0.269-0.271,0.339c-0.096,0.071-0.2,0.106-0.311,0.106c-0.068,0-0.12-0.018-0.156-0.053
		c-0.036-0.035-0.054-0.079-0.054-0.133c0-0.047,0.019-0.134,0.057-0.26l0.043-0.146c-0.139,0.238-0.271,0.406-0.399,0.505
		c-0.074,0.058-0.152,0.086-0.236,0.086c-0.11,0-0.189-0.045-0.238-0.135s-0.073-0.191-0.073-0.306c0-0.168,0.051-0.361,0.154-0.579
		s0.237-0.393,0.404-0.525c0.137-0.109,0.266-0.164,0.387-0.164c0.067,0,0.121,0.02,0.161,0.058c0.041,0.039,0.07,0.11,0.089,0.213
		l0.064-0.221L16.733,59.846z M16.161,60.186c0-0.097-0.015-0.167-0.044-0.21c-0.021-0.029-0.051-0.045-0.088-0.045
		s-0.075,0.019-0.115,0.054c-0.08,0.074-0.166,0.225-0.258,0.45c-0.093,0.227-0.139,0.422-0.139,0.587
		c0,0.063,0.011,0.108,0.032,0.137c0.021,0.028,0.043,0.042,0.069,0.042c0.054,0,0.108-0.031,0.163-0.093
		c0.079-0.089,0.15-0.196,0.213-0.324C16.104,60.559,16.161,60.359,16.161,60.186z"/>
	<path fill="#231F20" d="M17.79,59.82l-0.222,0.768c0.149-0.225,0.261-0.378,0.334-0.46c0.109-0.119,0.202-0.2,0.281-0.243
		c0.079-0.043,0.153-0.064,0.222-0.064c0.062,0,0.115,0.022,0.16,0.068c0.044,0.046,0.066,0.106,0.066,0.181
		c0,0.066-0.014,0.147-0.043,0.243l-0.229,0.765c-0.019,0.066-0.029,0.11-0.029,0.13c0,0.013,0.005,0.023,0.014,0.032
		c0.009,0.01,0.018,0.015,0.028,0.015c0.012,0,0.024-0.005,0.038-0.015c0.042-0.034,0.084-0.083,0.127-0.146
		c0.011-0.017,0.028-0.042,0.052-0.075l0.068,0.041c-0.176,0.295-0.36,0.442-0.553,0.442c-0.074,0-0.132-0.02-0.174-0.058
		c-0.042-0.038-0.063-0.086-0.063-0.143c0-0.051,0.014-0.125,0.043-0.224l0.224-0.765c0.016-0.05,0.023-0.087,0.023-0.111
		c0-0.013-0.005-0.024-0.016-0.034c-0.011-0.011-0.023-0.016-0.038-0.016c-0.045,0-0.101,0.031-0.165,0.093
		c-0.165,0.158-0.324,0.393-0.478,0.704l-0.147,0.531h-0.457l0.335-1.149c0.032-0.113,0.048-0.193,0.048-0.241
		c0-0.021-0.005-0.037-0.015-0.051c-0.009-0.014-0.025-0.024-0.046-0.032s-0.062-0.012-0.122-0.012l0.02-0.068l0.604-0.105H17.79z"
		/>
	<path fill="#231F20" d="M20.849,58.997L20.267,61c-0.037,0.125-0.055,0.201-0.055,0.228c0,0.013,0.004,0.024,0.014,0.033
		c0.01,0.01,0.02,0.015,0.03,0.015c0.021,0,0.044-0.01,0.07-0.03c0.044-0.033,0.098-0.097,0.161-0.189l0.064,0.033
		c-0.168,0.294-0.353,0.44-0.555,0.44c-0.072,0-0.127-0.019-0.166-0.056c-0.039-0.038-0.058-0.086-0.058-0.145
		c0-0.056,0.015-0.136,0.046-0.24l0.054-0.183c-0.149,0.265-0.279,0.439-0.389,0.526c-0.083,0.064-0.165,0.097-0.243,0.097
		c-0.089,0-0.165-0.036-0.227-0.108c-0.062-0.073-0.092-0.18-0.092-0.319c0-0.178,0.04-0.353,0.118-0.526
		c0.079-0.173,0.17-0.317,0.273-0.433c0.104-0.116,0.202-0.198,0.295-0.248s0.186-0.074,0.277-0.074c0.046,0,0.088,0.01,0.124,0.028
		c0.037,0.02,0.078,0.055,0.125,0.107l0.132-0.445c0.032-0.11,0.048-0.188,0.048-0.236c0-0.029-0.011-0.054-0.032-0.073
		c-0.021-0.021-0.05-0.031-0.086-0.031c-0.017,0-0.038,0.002-0.063,0.006l0.018-0.069l0.589-0.109H20.849z M20.062,60.132
		c0-0.073-0.015-0.126-0.043-0.159c-0.029-0.034-0.062-0.051-0.1-0.051c-0.039,0-0.08,0.02-0.124,0.06
		c-0.085,0.076-0.173,0.229-0.266,0.461c-0.092,0.23-0.139,0.425-0.139,0.582c0,0.058,0.01,0.1,0.03,0.128
		c0.021,0.027,0.043,0.041,0.068,0.041c0.042,0,0.083-0.02,0.125-0.058c0.102-0.091,0.202-0.247,0.3-0.468
		C20.012,60.446,20.062,60.268,20.062,60.132z"/>
	<path fill="#231F20" d="M24.241,58.997l-0.179,0.771h-0.07c-0.008-0.21-0.06-0.367-0.155-0.47
		c-0.095-0.104-0.219-0.155-0.371-0.155c-0.165,0-0.329,0.07-0.493,0.211c-0.163,0.141-0.302,0.356-0.415,0.646
		c-0.092,0.235-0.138,0.467-0.138,0.696c0,0.205,0.05,0.362,0.151,0.47c0.101,0.108,0.239,0.162,0.415,0.162
		c0.142,0,0.271-0.031,0.389-0.093c0.117-0.063,0.235-0.163,0.354-0.303h0.086c-0.148,0.222-0.297,0.378-0.448,0.467
		c-0.151,0.09-0.335,0.135-0.554,0.135c-0.292,0-0.527-0.089-0.706-0.266c-0.178-0.178-0.268-0.409-0.268-0.694
		c0-0.267,0.071-0.522,0.213-0.765c0.142-0.243,0.347-0.439,0.613-0.589c0.267-0.15,0.532-0.225,0.796-0.225
		c0.1,0,0.225,0.021,0.374,0.064c0.076,0.021,0.129,0.032,0.159,0.032c0.06,0,0.12-0.032,0.181-0.097H24.241z"/>
	<path fill="#231F20" d="M25.249,59.82c0.094,0,0.183,0.021,0.266,0.065c0.083,0.043,0.146,0.104,0.188,0.182
		c0.042,0.077,0.064,0.163,0.064,0.258c0,0.193-0.054,0.387-0.162,0.58s-0.25,0.346-0.427,0.457
		c-0.177,0.111-0.354,0.167-0.534,0.167c-0.162,0-0.288-0.048-0.377-0.145s-0.133-0.215-0.133-0.354c0-0.166,0.033-0.321,0.1-0.467
		c0.066-0.145,0.15-0.271,0.252-0.379c0.102-0.108,0.219-0.196,0.352-0.264S25.106,59.82,25.249,59.82z M25.175,59.915
		c-0.063,0-0.116,0.019-0.158,0.056c-0.083,0.075-0.178,0.251-0.283,0.527s-0.158,0.525-0.158,0.747c0,0.055,0.017,0.101,0.05,0.136
		c0.033,0.036,0.073,0.054,0.118,0.054c0.046,0,0.088-0.014,0.124-0.043c0.052-0.043,0.117-0.139,0.193-0.289
		c0.076-0.149,0.139-0.314,0.188-0.496c0.049-0.181,0.073-0.346,0.073-0.496c0-0.063-0.015-0.11-0.045-0.145
		C25.249,59.932,25.214,59.915,25.175,59.915z"/>
	<path fill="#231F20" d="M26.856,59.82l-0.222,0.768c0.149-0.225,0.261-0.378,0.334-0.46c0.109-0.119,0.202-0.2,0.281-0.243
		c0.079-0.043,0.153-0.064,0.222-0.064c0.062,0,0.115,0.022,0.16,0.068c0.044,0.046,0.066,0.106,0.066,0.181
		c0,0.066-0.014,0.147-0.043,0.243l-0.229,0.765c-0.019,0.066-0.029,0.11-0.029,0.13c0,0.013,0.005,0.023,0.014,0.032
		c0.009,0.01,0.018,0.015,0.028,0.015c0.012,0,0.024-0.005,0.038-0.015c0.042-0.034,0.084-0.083,0.127-0.146
		c0.011-0.017,0.028-0.042,0.052-0.075l0.068,0.041c-0.176,0.295-0.36,0.442-0.553,0.442c-0.074,0-0.132-0.02-0.174-0.058
		c-0.042-0.038-0.063-0.086-0.063-0.143c0-0.051,0.014-0.125,0.043-0.224l0.224-0.765c0.016-0.05,0.023-0.087,0.023-0.111
		c0-0.013-0.005-0.024-0.016-0.034c-0.011-0.011-0.023-0.016-0.038-0.016c-0.045,0-0.101,0.031-0.165,0.093
		c-0.165,0.158-0.324,0.393-0.478,0.704l-0.147,0.531h-0.457l0.335-1.149c0.032-0.113,0.048-0.193,0.048-0.241
		c0-0.021-0.005-0.037-0.015-0.051c-0.009-0.014-0.025-0.024-0.046-0.032s-0.062-0.012-0.122-0.012l0.02-0.068l0.604-0.105H26.856z"
		/>
	<path fill="#231F20" d="M29.279,59.82l-0.079,0.553h-0.066c-0.009-0.143-0.053-0.256-0.131-0.338
		c-0.078-0.083-0.162-0.124-0.251-0.124c-0.055,0-0.1,0.017-0.136,0.049c-0.036,0.032-0.054,0.071-0.054,0.116
		c0,0.038,0.008,0.074,0.023,0.107s0.05,0.079,0.104,0.136c0.188,0.203,0.303,0.343,0.344,0.419
		c0.041,0.076,0.061,0.158,0.061,0.245c0,0.095-0.024,0.184-0.071,0.268c-0.048,0.084-0.119,0.151-0.214,0.202
		c-0.095,0.051-0.193,0.076-0.296,0.076c-0.069,0-0.155-0.014-0.256-0.041c-0.067-0.019-0.117-0.028-0.15-0.028
		c-0.03,0-0.053,0.004-0.07,0.014c-0.017,0.009-0.035,0.027-0.056,0.056h-0.066l0.088-0.596h0.057
		c0.042,0.145,0.081,0.247,0.117,0.309c0.037,0.062,0.085,0.11,0.146,0.146c0.061,0.037,0.12,0.055,0.175,0.055
		c0.066,0,0.12-0.021,0.163-0.062s0.064-0.09,0.064-0.147c0-0.057-0.014-0.11-0.042-0.163c-0.028-0.053-0.093-0.134-0.194-0.245
		c-0.14-0.151-0.231-0.269-0.275-0.351c-0.031-0.06-0.047-0.128-0.047-0.204c0-0.129,0.047-0.236,0.141-0.322
		s0.225-0.129,0.395-0.129c0.074,0,0.165,0.013,0.272,0.039c0.054,0.014,0.097,0.02,0.128,0.02c0.047,0,0.084-0.02,0.113-0.059
		H29.279z"/>
	<path fill="#231F20" d="M30.393,59.384L30.25,59.87h0.234l-0.063,0.206h-0.231l-0.299,1.038c-0.019,0.064-0.028,0.113-0.028,0.146
		c0,0.016,0.005,0.029,0.016,0.041c0.011,0.011,0.022,0.017,0.036,0.017c0.021,0,0.041-0.009,0.063-0.025
		c0.055-0.041,0.119-0.114,0.192-0.218l0.063,0.039c-0.083,0.144-0.173,0.248-0.272,0.315c-0.099,0.066-0.196,0.1-0.292,0.1
		c-0.081,0-0.144-0.021-0.189-0.062c-0.044-0.041-0.067-0.094-0.067-0.156c0-0.069,0.016-0.158,0.046-0.267l0.283-0.969h-0.243
		l0.036-0.133c0.153-0.056,0.282-0.121,0.387-0.196s0.231-0.196,0.379-0.363H30.393z"/>
	<path fill="#231F20" d="M31.229,59.82l-0.271,1.006c0.222-0.49,0.389-0.792,0.501-0.905c0.065-0.067,0.135-0.101,0.208-0.101
		c0.05,0,0.091,0.019,0.122,0.055c0.031,0.036,0.047,0.088,0.047,0.154c0,0.116-0.028,0.213-0.084,0.292
		c-0.036,0.05-0.076,0.075-0.12,0.075c-0.048,0-0.083-0.022-0.107-0.066s-0.041-0.07-0.05-0.077c-0.009-0.008-0.02-0.012-0.03-0.012
		c-0.012,0-0.024,0.003-0.038,0.011c-0.026,0.014-0.061,0.049-0.103,0.104s-0.095,0.148-0.157,0.278s-0.11,0.24-0.145,0.33
		s-0.083,0.262-0.145,0.515h-0.433l0.295-1.187c0.021-0.089,0.032-0.147,0.032-0.176c0-0.032-0.005-0.058-0.017-0.075
		c-0.011-0.018-0.027-0.031-0.046-0.039c-0.02-0.009-0.061-0.013-0.123-0.013l0.016-0.052l0.541-0.118H31.229z"/>
	<path fill="#231F20" d="M32.761,59.82l-0.347,1.217c-0.017,0.057-0.025,0.095-0.025,0.116c0,0.011,0.004,0.02,0.012,0.025
		c0.01,0.01,0.021,0.015,0.034,0.015c0.055,0,0.128-0.049,0.22-0.147c0.131-0.142,0.269-0.346,0.414-0.611l0.163-0.548l0.453-0.017
		l-0.344,1.182c-0.029,0.101-0.043,0.157-0.043,0.172c0,0.01,0.004,0.02,0.014,0.029c0.008,0.011,0.018,0.016,0.027,0.016
		c0.017,0,0.033-0.008,0.048-0.021c0.043-0.035,0.1-0.104,0.171-0.21l0.061,0.043c-0.166,0.3-0.349,0.449-0.549,0.449
		c-0.073,0-0.131-0.019-0.174-0.056c-0.042-0.038-0.063-0.087-0.063-0.148c0-0.064,0.015-0.146,0.045-0.245l0.087-0.303
		c-0.155,0.226-0.268,0.378-0.338,0.457c-0.107,0.118-0.198,0.197-0.271,0.236s-0.144,0.059-0.21,0.059
		c-0.063,0-0.118-0.023-0.164-0.069c-0.046-0.047-0.069-0.105-0.069-0.178c0-0.061,0.015-0.143,0.044-0.245l0.203-0.716
		c0.033-0.117,0.05-0.195,0.05-0.236c0-0.018-0.005-0.033-0.014-0.047c-0.01-0.014-0.025-0.024-0.047-0.032
		c-0.022-0.008-0.063-0.012-0.123-0.012l0.018-0.068l0.61-0.105H32.761z"/>
	<path fill="#231F20" d="M35.203,61.048l0.054,0.049c-0.116,0.139-0.23,0.239-0.343,0.304c-0.148,0.086-0.304,0.129-0.463,0.129
		c-0.107,0-0.203-0.022-0.286-0.068s-0.144-0.11-0.184-0.193c-0.039-0.083-0.059-0.168-0.059-0.255c0-0.196,0.053-0.389,0.159-0.578
		c0.106-0.188,0.246-0.339,0.421-0.449c0.174-0.11,0.346-0.165,0.514-0.165c0.135,0,0.236,0.029,0.305,0.09
		c0.067,0.06,0.102,0.133,0.102,0.222c0,0.08-0.025,0.147-0.077,0.204c-0.051,0.056-0.108,0.084-0.172,0.084
		c-0.055,0-0.101-0.018-0.137-0.054s-0.055-0.078-0.055-0.127c0-0.064,0.032-0.121,0.097-0.169c0.044-0.033,0.066-0.063,0.066-0.087
		c0-0.021-0.009-0.039-0.027-0.053c-0.023-0.019-0.055-0.028-0.093-0.028c-0.101,0-0.194,0.041-0.283,0.122
		c-0.116,0.107-0.206,0.243-0.268,0.408c-0.063,0.164-0.094,0.32-0.094,0.469c0,0.117,0.032,0.21,0.095,0.28
		c0.063,0.069,0.139,0.104,0.226,0.104c0.076,0,0.159-0.02,0.248-0.059C35.038,61.188,35.123,61.128,35.203,61.048z"/>
	<path fill="#231F20" d="M36.504,59.384L36.36,59.87h0.234l-0.063,0.206h-0.23l-0.299,1.038c-0.02,0.064-0.029,0.113-0.029,0.146
		c0,0.016,0.006,0.029,0.017,0.041c0.011,0.011,0.022,0.017,0.036,0.017c0.02,0,0.041-0.009,0.063-0.025
		c0.055-0.041,0.118-0.114,0.191-0.218l0.063,0.039c-0.082,0.144-0.173,0.248-0.272,0.315c-0.099,0.066-0.196,0.1-0.291,0.1
		c-0.082,0-0.145-0.021-0.189-0.062s-0.067-0.094-0.067-0.156c0-0.069,0.016-0.158,0.047-0.267l0.283-0.969h-0.244l0.036-0.133
		c0.153-0.056,0.281-0.121,0.387-0.196s0.231-0.196,0.38-0.363H36.504z"/>
	<path fill="#231F20" d="M37.406,59.82l-0.367,1.272c-0.021,0.073-0.03,0.121-0.03,0.144c0,0.013,0.005,0.025,0.016,0.036
		c0.011,0.012,0.022,0.018,0.034,0.018c0.021,0,0.041-0.009,0.062-0.027c0.054-0.044,0.118-0.124,0.192-0.239l0.062,0.035
		c-0.181,0.314-0.372,0.471-0.575,0.471c-0.077,0-0.139-0.021-0.185-0.065c-0.046-0.043-0.069-0.099-0.069-0.165
		c0-0.044,0.011-0.101,0.03-0.168l0.249-0.856c0.024-0.082,0.036-0.144,0.036-0.186c0-0.026-0.012-0.05-0.034-0.07
		c-0.022-0.02-0.054-0.03-0.093-0.03c-0.019,0-0.04,0.001-0.064,0.002l0.022-0.071l0.607-0.099H37.406z M37.295,58.997
		c0.074,0,0.137,0.025,0.188,0.077c0.051,0.051,0.076,0.113,0.076,0.186c0,0.073-0.026,0.135-0.077,0.187
		c-0.052,0.051-0.113,0.077-0.187,0.077c-0.071,0-0.133-0.026-0.185-0.077c-0.051-0.052-0.076-0.113-0.076-0.187
		c0-0.072,0.024-0.135,0.075-0.186C37.16,59.022,37.223,58.997,37.295,58.997z"/>
	<path fill="#231F20" d="M38.695,59.82c0.094,0,0.183,0.021,0.266,0.065c0.083,0.043,0.146,0.104,0.188,0.182
		c0.043,0.077,0.063,0.163,0.063,0.258c0,0.193-0.054,0.387-0.162,0.58c-0.107,0.193-0.25,0.346-0.427,0.457
		s-0.354,0.167-0.533,0.167c-0.162,0-0.288-0.048-0.377-0.145S37.58,61.17,37.58,61.03c0-0.166,0.033-0.321,0.099-0.467
		c0.066-0.145,0.15-0.271,0.253-0.379c0.102-0.108,0.219-0.196,0.352-0.264S38.553,59.82,38.695,59.82z M38.621,59.915
		c-0.063,0-0.115,0.019-0.157,0.056c-0.083,0.075-0.178,0.251-0.282,0.527c-0.105,0.276-0.158,0.525-0.158,0.747
		c0,0.055,0.017,0.101,0.051,0.136c0.033,0.036,0.072,0.054,0.118,0.054s0.087-0.014,0.123-0.043
		c0.053-0.043,0.117-0.139,0.193-0.289c0.076-0.149,0.139-0.314,0.188-0.496c0.049-0.181,0.074-0.346,0.074-0.496
		c0-0.063-0.016-0.11-0.045-0.145C38.695,59.932,38.661,59.915,38.621,59.915z"/>
	<path fill="#231F20" d="M40.303,59.82l-0.223,0.768c0.149-0.225,0.261-0.378,0.335-0.46c0.108-0.119,0.202-0.2,0.281-0.243
		s0.152-0.064,0.222-0.064c0.063,0,0.115,0.022,0.159,0.068s0.066,0.106,0.066,0.181c0,0.066-0.015,0.147-0.043,0.243l-0.229,0.765
		c-0.02,0.066-0.029,0.11-0.029,0.13c0,0.013,0.005,0.023,0.014,0.032c0.009,0.01,0.019,0.015,0.027,0.015
		c0.013,0,0.024-0.005,0.038-0.015c0.042-0.034,0.084-0.083,0.127-0.146c0.011-0.017,0.028-0.042,0.052-0.075l0.068,0.041
		c-0.176,0.295-0.36,0.442-0.554,0.442c-0.073,0-0.132-0.02-0.173-0.058c-0.042-0.038-0.063-0.086-0.063-0.143
		c0-0.051,0.015-0.125,0.043-0.224l0.225-0.765c0.015-0.05,0.022-0.087,0.022-0.111c0-0.013-0.005-0.024-0.016-0.034
		c-0.011-0.011-0.023-0.016-0.038-0.016c-0.045,0-0.1,0.031-0.164,0.093c-0.165,0.158-0.324,0.393-0.479,0.704l-0.146,0.531H39.37
		l0.334-1.149c0.032-0.113,0.049-0.193,0.049-0.241c0-0.021-0.005-0.037-0.015-0.051s-0.024-0.024-0.046-0.032
		s-0.063-0.012-0.122-0.012l0.02-0.068l0.604-0.105H40.303z"/>
	<path fill="#231F20" d="M44.417,58.997l-0.202,0.823h-0.059c-0.014-0.129-0.037-0.232-0.07-0.31
		c-0.05-0.112-0.116-0.199-0.199-0.26s-0.173-0.092-0.27-0.092c-0.093,0-0.175,0.036-0.244,0.107c-0.07,0.07-0.104,0.15-0.104,0.24
		c0,0.089,0.023,0.175,0.072,0.261c0.048,0.085,0.162,0.214,0.343,0.386c0.145,0.137,0.241,0.255,0.291,0.354
		c0.049,0.099,0.074,0.206,0.074,0.322c0,0.13-0.035,0.25-0.104,0.359c-0.068,0.11-0.169,0.195-0.301,0.255
		c-0.132,0.061-0.281,0.091-0.449,0.091c-0.103,0-0.231-0.016-0.387-0.046c-0.156-0.03-0.26-0.046-0.311-0.046
		c-0.041,0-0.077,0.007-0.109,0.02c-0.032,0.012-0.072,0.036-0.12,0.072h-0.069l0.216-0.926h0.068
		c0.016,0.162,0.048,0.301,0.099,0.415c0.05,0.113,0.121,0.202,0.215,0.267c0.093,0.063,0.199,0.096,0.318,0.096
		c0.118,0,0.217-0.039,0.296-0.117c0.08-0.078,0.119-0.17,0.119-0.275c0-0.089-0.022-0.175-0.067-0.258
		c-0.044-0.082-0.146-0.202-0.306-0.359s-0.27-0.299-0.33-0.423c-0.044-0.092-0.066-0.189-0.066-0.293
		c0-0.181,0.071-0.336,0.213-0.468c0.143-0.131,0.328-0.196,0.557-0.196c0.104,0,0.24,0.023,0.41,0.069
		c0.099,0.027,0.169,0.041,0.209,0.041c0.035,0,0.066-0.007,0.094-0.022c0.027-0.015,0.06-0.044,0.097-0.088H44.417z"/>
	<path fill="#231F20" d="M44.539,59.921l0.593-0.101h0.107l-0.081,0.292c0.126-0.115,0.229-0.192,0.309-0.232s0.159-0.06,0.238-0.06
		c0.111,0,0.198,0.043,0.259,0.13c0.062,0.086,0.092,0.192,0.092,0.317c0,0.343-0.119,0.646-0.356,0.911
		c-0.21,0.234-0.439,0.351-0.688,0.351c-0.044,0-0.082-0.004-0.112-0.013c-0.031-0.008-0.075-0.026-0.131-0.055l-0.093,0.322
		c-0.034,0.116-0.051,0.205-0.051,0.267c0,0.038,0.014,0.068,0.04,0.09c0.025,0.022,0.087,0.041,0.184,0.057l-0.016,0.066H43.87
		l0.018-0.066c0.076-0.002,0.14-0.026,0.19-0.073s0.099-0.146,0.143-0.301l0.437-1.506c0.032-0.111,0.049-0.191,0.049-0.237
		c0-0.021-0.005-0.038-0.015-0.052s-0.023-0.023-0.043-0.029c-0.019-0.006-0.062-0.009-0.129-0.009L44.539,59.921z M44.818,61.295
		c0.036,0.059,0.068,0.098,0.097,0.117c0.029,0.02,0.063,0.03,0.101,0.03s0.075-0.011,0.111-0.032
		c0.037-0.021,0.082-0.063,0.136-0.126s0.105-0.145,0.154-0.243c0.05-0.099,0.09-0.212,0.119-0.338
		c0.03-0.125,0.045-0.246,0.045-0.36c0-0.092-0.017-0.158-0.049-0.2c-0.033-0.042-0.073-0.063-0.119-0.063
		c-0.042,0-0.081,0.011-0.118,0.032c-0.054,0.03-0.117,0.089-0.19,0.173L44.818,61.295z"/>
	<path fill="#231F20" d="M46.724,60.809c-0.011,0.077-0.017,0.141-0.017,0.191c0,0.089,0.026,0.161,0.078,0.215
		s0.121,0.08,0.208,0.08c0.084,0,0.168-0.021,0.252-0.061c0.084-0.041,0.182-0.111,0.293-0.213l0.054,0.048
		c-0.138,0.166-0.271,0.284-0.401,0.354s-0.273,0.105-0.432,0.105c-0.199,0-0.337-0.048-0.413-0.143
		c-0.076-0.096-0.115-0.206-0.115-0.331c0-0.196,0.058-0.392,0.172-0.588c0.113-0.195,0.269-0.353,0.465-0.471
		s0.394-0.177,0.592-0.177c0.101,0,0.176,0.023,0.228,0.071c0.051,0.048,0.076,0.108,0.076,0.181c0,0.088-0.024,0.172-0.074,0.255
		c-0.069,0.111-0.157,0.202-0.262,0.271c-0.105,0.069-0.223,0.121-0.353,0.157C46.987,60.778,46.87,60.796,46.724,60.809z
		 M46.739,60.715c0.105-0.016,0.187-0.036,0.244-0.063c0.058-0.026,0.115-0.069,0.17-0.129c0.056-0.059,0.104-0.134,0.145-0.224
		c0.04-0.09,0.061-0.175,0.061-0.253c0-0.033-0.009-0.06-0.027-0.079c-0.019-0.019-0.042-0.028-0.071-0.028
		c-0.057,0-0.121,0.04-0.193,0.12C46.936,60.204,46.826,60.423,46.739,60.715z"/>
	<path fill="#231F20" d="M49.154,61.048l0.054,0.049c-0.116,0.139-0.23,0.239-0.343,0.304c-0.148,0.086-0.304,0.129-0.463,0.129
		c-0.107,0-0.203-0.022-0.286-0.068s-0.144-0.11-0.184-0.193c-0.039-0.083-0.059-0.168-0.059-0.255c0-0.196,0.053-0.389,0.159-0.578
		c0.106-0.188,0.246-0.339,0.421-0.449c0.174-0.11,0.346-0.165,0.514-0.165c0.135,0,0.236,0.029,0.305,0.09
		c0.067,0.06,0.102,0.133,0.102,0.222c0,0.08-0.025,0.147-0.077,0.204c-0.051,0.056-0.108,0.084-0.172,0.084
		c-0.055,0-0.101-0.018-0.137-0.054s-0.055-0.078-0.055-0.127c0-0.064,0.032-0.121,0.097-0.169c0.044-0.033,0.066-0.063,0.066-0.087
		c0-0.021-0.009-0.039-0.027-0.053c-0.023-0.019-0.055-0.028-0.093-0.028c-0.101,0-0.194,0.041-0.283,0.122
		c-0.116,0.107-0.206,0.243-0.268,0.408c-0.063,0.164-0.094,0.32-0.094,0.469c0,0.117,0.032,0.21,0.095,0.28
		c0.063,0.069,0.139,0.104,0.226,0.104c0.076,0,0.159-0.02,0.248-0.059C48.989,61.188,49.074,61.128,49.154,61.048z"/>
	<path fill="#231F20" d="M50.339,59.82l-0.367,1.272c-0.021,0.073-0.03,0.121-0.03,0.144c0,0.013,0.005,0.025,0.016,0.036
		c0.011,0.012,0.022,0.018,0.034,0.018c0.021,0,0.041-0.009,0.062-0.027c0.054-0.044,0.118-0.124,0.192-0.239l0.062,0.035
		c-0.181,0.314-0.372,0.471-0.575,0.471c-0.077,0-0.139-0.021-0.185-0.065c-0.046-0.043-0.069-0.099-0.069-0.165
		c0-0.044,0.011-0.101,0.03-0.168l0.249-0.856c0.024-0.082,0.036-0.144,0.036-0.186c0-0.026-0.012-0.05-0.034-0.07
		c-0.022-0.02-0.054-0.03-0.093-0.03c-0.019,0-0.04,0.001-0.064,0.002l0.022-0.071l0.607-0.099H50.339z M50.228,58.997
		c0.074,0,0.137,0.025,0.188,0.077c0.051,0.051,0.076,0.113,0.076,0.186c0,0.073-0.026,0.135-0.077,0.187
		c-0.052,0.051-0.113,0.077-0.187,0.077c-0.071,0-0.133-0.026-0.185-0.077c-0.051-0.052-0.076-0.113-0.076-0.187
		c0-0.072,0.024-0.135,0.075-0.186C50.093,59.022,50.155,58.997,50.228,58.997z"/>
	<path fill="#231F20" d="M52.179,59.846l-0.347,1.189l-0.036,0.146c-0.004,0.018-0.006,0.031-0.006,0.039
		c0,0.015,0.006,0.027,0.016,0.038s0.021,0.016,0.031,0.016c0.025,0,0.06-0.019,0.104-0.057c0.019-0.016,0.062-0.071,0.129-0.165
		l0.063,0.032c-0.084,0.155-0.175,0.269-0.271,0.339c-0.097,0.071-0.2,0.106-0.311,0.106c-0.068,0-0.12-0.018-0.156-0.053
		c-0.035-0.035-0.054-0.079-0.054-0.133c0-0.047,0.02-0.134,0.058-0.26l0.043-0.146c-0.139,0.238-0.271,0.406-0.399,0.505
		c-0.074,0.058-0.152,0.086-0.236,0.086c-0.109,0-0.188-0.045-0.238-0.135c-0.049-0.09-0.073-0.191-0.073-0.306
		c0-0.168,0.052-0.361,0.154-0.579s0.237-0.393,0.404-0.525c0.138-0.109,0.267-0.164,0.387-0.164c0.067,0,0.121,0.02,0.161,0.058
		c0.041,0.039,0.07,0.11,0.09,0.213l0.064-0.221L52.179,59.846z M51.606,60.186c0-0.097-0.016-0.167-0.045-0.21
		c-0.021-0.029-0.051-0.045-0.088-0.045s-0.075,0.019-0.114,0.054c-0.08,0.074-0.167,0.225-0.259,0.45
		c-0.093,0.227-0.139,0.422-0.139,0.587c0,0.063,0.01,0.108,0.031,0.137c0.021,0.028,0.044,0.042,0.068,0.042
		c0.054,0,0.108-0.031,0.163-0.093c0.079-0.089,0.149-0.196,0.213-0.324C51.55,60.559,51.606,60.359,51.606,60.186z"/>
	<path fill="#231F20" d="M53.416,58.997l-0.593,2.016c-0.034,0.119-0.052,0.193-0.052,0.224c0,0.016,0.005,0.028,0.015,0.039
		c0.011,0.011,0.021,0.017,0.033,0.017c0.021,0,0.042-0.009,0.062-0.025c0.057-0.047,0.121-0.125,0.191-0.236l0.069,0.032
		c-0.113,0.182-0.225,0.311-0.334,0.389c-0.075,0.052-0.155,0.078-0.24,0.078c-0.079,0-0.142-0.021-0.188-0.063
		c-0.046-0.042-0.069-0.093-0.069-0.152c0-0.045,0.015-0.115,0.043-0.214l0.483-1.65c0.026-0.09,0.039-0.15,0.039-0.181
		c0-0.028-0.013-0.051-0.037-0.067c-0.034-0.024-0.084-0.034-0.152-0.031l0.02-0.067l0.604-0.105H53.416z"/>
	<path fill="#231F20" d="M54.209,59.82l-0.367,1.272c-0.021,0.073-0.03,0.121-0.03,0.144c0,0.013,0.005,0.025,0.016,0.036
		c0.011,0.012,0.022,0.018,0.034,0.018c0.021,0,0.041-0.009,0.062-0.027c0.054-0.044,0.118-0.124,0.192-0.239l0.062,0.035
		c-0.181,0.314-0.372,0.471-0.575,0.471c-0.077,0-0.139-0.021-0.185-0.065c-0.046-0.043-0.069-0.099-0.069-0.165
		c0-0.044,0.011-0.101,0.03-0.168l0.249-0.856c0.024-0.082,0.036-0.144,0.036-0.186c0-0.026-0.012-0.05-0.034-0.07
		c-0.022-0.02-0.054-0.03-0.093-0.03c-0.019,0-0.04,0.001-0.064,0.002l0.022-0.071l0.607-0.099H54.209z M54.098,58.997
		c0.074,0,0.137,0.025,0.188,0.077c0.051,0.051,0.076,0.113,0.076,0.186c0,0.073-0.026,0.135-0.077,0.187
		c-0.052,0.051-0.113,0.077-0.187,0.077c-0.071,0-0.133-0.026-0.185-0.077c-0.051-0.052-0.076-0.113-0.076-0.187
		c0-0.072,0.024-0.135,0.075-0.186C53.963,59.022,54.025,58.997,54.098,58.997z"/>
	<path fill="#231F20" d="M55.657,59.82l-0.079,0.553h-0.066c-0.01-0.143-0.053-0.256-0.131-0.338
		c-0.079-0.083-0.162-0.124-0.252-0.124c-0.055,0-0.101,0.017-0.136,0.049c-0.036,0.032-0.054,0.071-0.054,0.116
		c0,0.038,0.008,0.074,0.023,0.107c0.015,0.033,0.05,0.079,0.104,0.136c0.188,0.203,0.303,0.343,0.344,0.419
		c0.04,0.076,0.061,0.158,0.061,0.245c0,0.095-0.023,0.184-0.071,0.268s-0.119,0.151-0.214,0.202s-0.194,0.076-0.297,0.076
		c-0.069,0-0.154-0.014-0.256-0.041c-0.066-0.019-0.117-0.028-0.15-0.028c-0.029,0-0.053,0.004-0.069,0.014
		c-0.017,0.009-0.035,0.027-0.056,0.056h-0.066l0.088-0.596h0.058c0.041,0.145,0.08,0.247,0.117,0.309
		c0.036,0.062,0.085,0.11,0.146,0.146c0.061,0.037,0.119,0.055,0.176,0.055c0.065,0,0.12-0.021,0.163-0.062
		c0.042-0.041,0.063-0.09,0.063-0.147c0-0.057-0.014-0.11-0.042-0.163c-0.027-0.053-0.093-0.134-0.193-0.245
		c-0.14-0.151-0.232-0.269-0.276-0.351c-0.031-0.06-0.046-0.128-0.046-0.204c0-0.129,0.047-0.236,0.14-0.322
		c0.094-0.086,0.226-0.129,0.396-0.129c0.073,0,0.164,0.013,0.271,0.039c0.054,0.014,0.097,0.02,0.129,0.02
		c0.047,0,0.084-0.02,0.113-0.059H55.657z"/>
	<path fill="#231F20" d="M56.771,59.384l-0.144,0.486h0.234l-0.063,0.206h-0.23l-0.299,1.038c-0.02,0.064-0.029,0.113-0.029,0.146
		c0,0.016,0.006,0.029,0.017,0.041c0.011,0.011,0.022,0.017,0.036,0.017c0.02,0,0.041-0.009,0.063-0.025
		c0.055-0.041,0.118-0.114,0.191-0.218l0.063,0.039c-0.082,0.144-0.173,0.248-0.272,0.315c-0.099,0.066-0.196,0.1-0.291,0.1
		c-0.082,0-0.145-0.021-0.189-0.062s-0.067-0.094-0.067-0.156c0-0.069,0.016-0.158,0.047-0.267l0.283-0.969h-0.244l0.036-0.133
		c0.153-0.056,0.281-0.121,0.387-0.196s0.231-0.196,0.38-0.363H56.771z"/>
	<path fill="#231F20" d="M58.103,59.82l-0.079,0.553h-0.066c-0.01-0.143-0.053-0.256-0.131-0.338
		c-0.079-0.083-0.162-0.124-0.252-0.124c-0.055,0-0.101,0.017-0.136,0.049c-0.036,0.032-0.054,0.071-0.054,0.116
		c0,0.038,0.008,0.074,0.023,0.107c0.015,0.033,0.05,0.079,0.104,0.136c0.188,0.203,0.303,0.343,0.344,0.419
		c0.04,0.076,0.061,0.158,0.061,0.245c0,0.095-0.023,0.184-0.071,0.268s-0.119,0.151-0.214,0.202s-0.194,0.076-0.297,0.076
		c-0.069,0-0.154-0.014-0.256-0.041c-0.066-0.019-0.117-0.028-0.15-0.028c-0.029,0-0.053,0.004-0.069,0.014
		c-0.017,0.009-0.035,0.027-0.056,0.056h-0.066l0.088-0.596h0.058c0.041,0.145,0.08,0.247,0.117,0.309
		c0.036,0.062,0.085,0.11,0.146,0.146c0.061,0.037,0.119,0.055,0.176,0.055c0.065,0,0.12-0.021,0.163-0.062
		c0.042-0.041,0.063-0.09,0.063-0.147c0-0.057-0.014-0.11-0.042-0.163c-0.027-0.053-0.093-0.134-0.193-0.245
		c-0.14-0.151-0.232-0.269-0.276-0.351c-0.031-0.06-0.046-0.128-0.046-0.204c0-0.129,0.047-0.236,0.14-0.322
		c0.094-0.086,0.226-0.129,0.396-0.129c0.073,0,0.164,0.013,0.271,0.039c0.054,0.014,0.097,0.02,0.129,0.02
		c0.047,0,0.084-0.02,0.113-0.059H58.103z"/>
</g>
</svg>
