<svg xmlns="http://www.w3.org/2000/svg" xmlns:xlink="http://www.w3.org/1999/xlink" version="1.1" x="0px" y="0px" viewBox="0 0 169.536 269.93874999999997" style="enable-background:new 0 0 169.536 215.951;" xml:space="preserve"><g><path d="M12.631,130.692c0.591,0.994,1.219,2.142,1.84,3.448c2.368,4.986,4.658,12.086,4.664,21.338   c-0.023,10.511-2.903,24.038-13.164,40.983c-3.584,5.9-1.707,13.589,4.195,17.172c2.027,1.232,4.266,1.819,6.478,1.819   c4.222,0,8.343-2.14,10.694-6.013c12.332-20.249,16.823-38.649,16.799-53.961c0-0.964-0.02-1.914-0.053-2.851   c1.639,2.602,3.176,5.501,4.532,8.792c3.23,7.864,5.489,17.911,5.495,31.018c0.002,3.153-0.132,6.485-0.417,10.007   c-0.556,6.882,4.573,12.911,11.452,13.466c0.343,0.028,0.684,0.041,1.021,0.042c6.448,0,11.919-4.956,12.446-11.494   c0.336-4.158,0.5-8.161,0.5-12.021c0.008-17.072-3.211-31.249-8.311-42.71c-7.633-17.237-19.367-28.01-29.082-34.218   c-1.694-1.084-3.323-2.031-4.873-2.87c5.111-9.439,11.938-18.335,17.92-25.893c-0.548-0.474-1.092-0.957-1.628-1.458   c-5.599-5.253-8.905-10.313-10.069-12.245l-0.006-0.012l-0.055-0.091c-1.342-2.31-1.705-5.003-1.023-7.585   c0.685-2.585,2.332-4.745,4.643-6.087c1.525-0.886,3.262-1.354,5.021-1.354c3.552,0,6.866,1.906,8.649,4.973l0.123,0.198   c0.123,0.192,0.346,0.537,0.654,0.977c0.586,0.846,1.551,2.156,2.849,3.641c0.466,0.537,1.065,1.192,1.771,1.905   c1.458-5.715,0.612-11.502-3.358-14.948c-6.643-5.768-19.776-7.246-30.903,3.522C16.225,73.077,8.967,84.117,1.2,105.089   C-3.064,119.991,4.815,126.592,12.631,130.692z"/><rect x="128.082" y="71.582" width="6" height="143.036"/><path d="M113.955,85.736L92.63,213.248l5.933,0.898L121.119,79.26C118.763,81.638,116.371,83.797,113.955,85.736z"/><polygon points="163.605,214.146 169.536,213.248 145.845,71.582 139.762,71.582  "/><path d="M124.556,68.349h26.777v-1.768v-4.232h-12.251v-4.456c2.381-1.529,4.29-3.718,5.48-6.312h6.354V38.915h-6.516   c-1.988-4.065-5.765-7.094-10.318-8.029v-4.138h-6v4.138c-4.553,0.935-8.329,3.964-10.316,8.029h-6.516v12.667h6.354   c1.188,2.593,3.098,4.781,5.478,6.311v4.457h-3.531c0.864,0.444,1.669,1.016,2.385,1.708   C123.183,65.26,124.069,66.735,124.556,68.349z"/><path d="M62.42,69.019c-1.315-1.502-2.328-2.864-2.984-3.81c-0.328-0.472-0.566-0.841-0.713-1.071   c-0.073-0.117-0.121-0.198-0.147-0.24l-0.005-0.006c-2.221-3.82-7.117-5.115-10.938-2.894c-3.82,2.22-5.115,7.118-2.895,10.938   c0.257,0.417,3.51,6.023,9.767,11.892c3.138,2.929,7.052,5.932,11.819,8.265c4.754,2.33,10.42,3.963,16.717,3.96   c0.029,0,0.062,0,0.092,0c11.695,0.001,24.631-5.739,37.606-19.246c3.071-3.177,2.985-8.241-0.192-11.311   c-3.176-3.07-8.24-2.985-11.311,0.194C98.045,77.186,89.475,80.021,83.041,80.051c-3.543-0.004-6.721-0.887-9.693-2.335   C68.903,75.563,65.043,72.038,62.42,69.019z"/><path d="M56.555,28.884c-1.697,12.307,6.904,23.661,19.208,25.358c12.309,1.699,23.661-6.901,25.36-19.208   c0.104-0.752,0.168-1.5,0.197-2.243l-44.664-4.525C56.623,28.472,56.584,28.676,56.555,28.884z"/><path d="M56.356,20.16c-1.658-0.169-3.137,1.041-3.306,2.697c-0.169,1.66,1.038,3.14,2.696,3.307l0.4,0.041v0l46.025,4.662l0,0   l0.398,0.04c1.66,0.169,3.139-1.037,3.307-2.697c0.168-1.657-1.039-3.14-2.697-3.308l-0.414-0.042   c0.051-0.672,0.075-1.34,0.068-2.003C102.709,11.239,93.871,1.319,82.038,0.12C70.204-1.08,59.557,6.867,57.106,18.225   c-0.141,0.647-0.251,1.308-0.336,1.977L56.356,20.16z"/></g><text x="0" y="230.951" fill="#000000" font-size="5px" font-weight="bold" font-family="'Helvetica Neue', Helvetica, Arial-Unicode, Arial, Sans-serif">Created by Gan Khoon Lay</text><text x="0" y="235.951" fill="#000000" font-size="5px" font-weight="bold" font-family="'Helvetica Neue', Helvetica, Arial-Unicode, Arial, Sans-serif">from the Noun Project</text></svg>